<svg width="16" height="16" viewBox="0 0 16 16" fill="none" xmlns="http://www.w3.org/2000/svg">
<path d="M7.99999 0.666672C3.95611 0.666672 0.666656 3.95613 0.666656 8.00001C0.666656 12.0439 3.95611 15.3333 7.99999 15.3333C12.0439 15.3333 15.3333 12.0439 15.3333 8.00001C15.3333 3.95613 12.0439 0.666672 7.99999 0.666672ZM7.99999 14.0872C6.07271 14.0872 4.35489 13.1841 3.23907 11.7817C4.01632 10.7647 5.10054 10.0252 6.33106 9.67277C5.88799 9.39132 5.52313 9.00261 5.27027 8.54263C5.01741 8.08265 4.88473 7.5663 4.88452 7.0414C4.88452 5.32358 6.28217 3.92593 7.99999 3.92593C9.71781 3.92593 11.1155 5.32358 11.1155 7.0414C11.115 7.56637 10.9822 8.08276 10.7293 8.54278C10.4763 9.00281 10.1115 9.39162 9.66844 9.67325C10.8992 10.0254 11.9837 10.765 12.7609 11.7822C11.6451 13.1841 9.92727 14.0872 7.99999 14.0872Z" fill="#1E1E1E"/>
</svg>
