<svg width="24" height="24" viewBox="0 0 24 24" fill="none" xmlns="http://www.w3.org/2000/svg">
<path d="M12 1.6875C17.6954 1.6875 22.3125 6.30456 22.3125 12C22.3125 17.6954 17.6954 22.3125 12 22.3125C6.30456 22.3125 1.6875 17.6954 1.6875 12C1.6875 6.30456 6.30456 1.6875 12 1.6875ZM12 7.1875C10.1015 7.1875 8.5625 8.72652 8.5625 10.625C8.5625 12.0099 9.38902 13.2374 10.6247 13.7762L10.625 15.2189L10.5218 15.238C8.5744 15.6239 6.86506 16.7664 5.75352 18.3918C7.36462 19.9669 9.56896 20.9375 12 20.9375C14.4307 20.9375 16.6347 19.9672 18.246 18.3927C17.1362 16.7683 15.4287 15.6257 13.4821 15.2393L13.375 15.2196L13.3758 13.7764C14.5644 13.2575 15.3742 12.1018 15.4339 10.782L15.4375 10.625C15.4375 8.72652 13.8985 7.1875 12 7.1875ZM12 3.0625C7.06395 3.0625 3.0625 7.06395 3.0625 12C3.0625 13.9969 3.71739 15.8408 4.82412 17.3288C5.80089 16.0132 7.12004 14.9911 8.63191 14.3755L8.87119 14.2818L8.8554 14.2688C7.86744 13.4155 7.24347 12.1749 7.19108 10.8116L7.1875 10.625C7.1875 7.96713 9.34213 5.8125 12 5.8125C14.6579 5.8125 16.8125 7.96713 16.8125 10.625C16.8125 11.996 16.234 13.2567 15.2831 14.1446L15.1281 14.2825L15.1589 14.2937C16.7586 14.8982 18.1544 15.9532 19.176 17.3275C20.2828 15.8403 20.9375 13.9966 20.9375 12C20.9375 7.06395 16.936 3.0625 12 3.0625Z" fill="#1E1E1E"/>
</svg>
