<svg width="16" height="16" viewBox="0 0 16 16" fill="none" xmlns="http://www.w3.org/2000/svg">
<path d="M8 1C11.866 1 15 4.13401 15 8C15 11.866 11.866 15 8 15C4.13401 15 1 11.866 1 8C1 4.13401 4.13401 1 8 1ZM8 4.73333C6.71134 4.73333 5.66667 5.778 5.66667 7.06667C5.66667 8.00672 6.2277 8.83995 7.0665 9.20563L7.06665 10.1849L6.99665 10.1979C5.67475 10.4599 4.51446 11.2353 3.75996 12.3387C4.85356 13.4078 6.34984 14.0667 8 14.0667C9.64992 14.0667 11.146 13.408 12.2397 12.3393C11.4864 11.2366 10.3274 10.4611 9.00606 10.1988L8.93331 10.1854L8.93389 9.2058C9.74068 8.85359 10.2903 8.06911 10.3309 7.17324L10.3333 7.06667C10.3333 5.778 9.28866 4.73333 8 4.73333ZM8 1.93333C4.64947 1.93333 1.93333 4.64947 1.93333 8C1.93333 9.35547 2.37787 10.6071 3.1291 11.6171C3.79212 10.7241 4.68754 10.0303 5.71378 9.61248L5.8762 9.54887L5.86549 9.54001C5.19487 8.96082 4.77133 8.11874 4.73576 7.19336L4.73333 7.06667C4.73333 5.26254 6.19587 3.8 8 3.8C9.80413 3.8 11.2667 5.26254 11.2667 7.06667C11.2667 7.99726 10.874 8.85306 10.2285 9.4557L10.1233 9.54933L10.1442 9.55695C11.2301 9.96725 12.1775 10.6834 12.871 11.6162C13.6223 10.6067 14.0667 9.35526 14.0667 8C14.0667 4.64947 11.3505 1.93333 8 1.93333Z" fill="#1E1E1E"/>
</svg>
