<svg width="24" height="24" viewBox="0 0 24 24" fill="none" xmlns="http://www.w3.org/2000/svg">
<path d="M12 1C5.93418 1 1 5.93418 1 12C1 18.0658 5.93418 23 12 23C18.0658 23 23 18.0658 23 12C23 5.93418 18.0658 1 12 1ZM12 21.1307C9.10909 21.1307 6.53235 19.7762 4.85863 17.6725C6.02449 16.1471 7.65083 15.0378 9.4966 14.5091C8.832 14.087 8.28471 13.5039 7.90542 12.8139C7.52612 12.124 7.3271 11.3494 7.3268 10.5621C7.3268 7.98536 9.42327 5.88889 12 5.88889C14.5767 5.88889 16.6732 7.98536 16.6732 10.5621C16.6725 11.3496 16.4733 12.1241 16.0939 12.8142C15.7145 13.5042 15.1672 14.0874 14.5027 14.5099C16.3488 15.0381 17.9755 16.1475 19.1414 17.6733C17.4676 19.7762 14.8909 21.1307 12 21.1307Z" fill="#1E1E1E"/>
</svg>
