<svg width="12" height="12" viewBox="0 0 12 12" fill="none" xmlns="http://www.w3.org/2000/svg">
<path d="M6 0.5C2.96709 0.5 0.5 2.96709 0.5 6C0.5 9.03291 2.96709 11.5 6 11.5C9.03291 11.5 11.5 9.03291 11.5 6C11.5 2.96709 9.03291 0.5 6 0.5ZM6 10.5654C4.55454 10.5654 3.26618 9.8881 2.42931 8.83627C3.01224 8.07353 3.82541 7.5189 4.7483 7.25457C4.416 7.04349 4.14235 6.75195 3.95271 6.40697C3.76306 6.06199 3.66355 5.67472 3.6634 5.28105C3.6634 3.99268 4.71163 2.94444 6 2.94444C7.28837 2.94444 8.3366 3.99268 8.3366 5.28105C8.33627 5.67478 8.23665 6.06206 8.04696 6.40708C7.85726 6.7521 7.58362 7.04371 7.25134 7.25493C8.17441 7.51907 8.98775 8.07373 9.57069 8.83663C8.73382 9.8881 7.44546 10.5654 6 10.5654Z" fill="#1E1E1E"/>
</svg>
