<svg width="12" height="12" viewBox="0 0 12 12" fill="none" xmlns="http://www.w3.org/2000/svg">
<path d="M6 0.5C9.03757 0.5 11.5 2.96243 11.5 6C11.5 9.03757 9.03757 11.5 6 11.5C2.96243 11.5 0.5 9.03757 0.5 6C0.5 2.96243 2.96243 0.5 6 0.5ZM6 3.43333C4.98748 3.43333 4.16667 4.25414 4.16667 5.26667C4.16667 6.00528 4.60748 6.65996 5.26653 6.94728L5.26665 7.71673L5.21165 7.72694C4.17302 7.93276 3.26136 8.54206 2.66854 9.40895C3.5278 10.249 4.70345 10.7667 6 10.7667C7.29637 10.7667 8.47187 10.2492 9.33117 9.40946C8.73931 8.54308 7.82864 7.93371 6.79047 7.72763L6.73332 7.7171L6.73377 6.94741C7.36768 6.67067 7.79956 6.0543 7.83144 5.35041L7.83333 5.26667C7.83333 4.25414 7.01252 3.43333 6 3.43333ZM6 1.23333C3.36744 1.23333 1.23333 3.36744 1.23333 6C1.23333 7.06501 1.58261 8.04845 2.17286 8.842C2.69381 8.14039 3.39735 7.59525 4.20369 7.26695L4.3313 7.21697L4.32288 7.21001C3.79597 6.75493 3.46319 6.0933 3.43524 5.36621L3.43333 5.26667C3.43333 3.84914 4.58247 2.7 6 2.7C7.41753 2.7 8.56667 3.84914 8.56667 5.26667C8.56667 5.99785 8.25811 6.67026 7.75099 7.14377L7.66833 7.21733L7.68475 7.22332C8.53793 7.54569 9.28234 8.1084 9.82721 8.84133C10.4175 8.04814 10.7667 7.06485 10.7667 6C10.7667 3.36744 8.63256 1.23333 6 1.23333Z" fill="#1E1E1E"/>
</svg>
