<svg width="16" height="16" viewBox="0 0 16 16" fill="none" xmlns="http://www.w3.org/2000/svg">
<path d="M9.8 12.625C9.6 12.625 9.4 12.525 9.3 12.425C9 12.125 9 11.625 9.3 11.325L12 8.625H1.8C1.4 8.625 1 8.225 1 7.825C1 7.425 1.4 7.025 1.8 7.025H12L9.3 4.325C9 4.025 9 3.525 9.3 3.225C9.6 2.925 10.1 2.925 10.4 3.225L14.4 7.225C14.5 7.325 14.5 7.425 14.6 7.425C14.6 7.525 14.7 7.625 14.7 7.725C14.7 7.825 14.7 7.925 14.6 8.025C14.6 8.125 14.5 8.225 14.4 8.225L10.4 12.225C10.2 12.525 10 12.625 9.8 12.625Z" fill="#1E1E1E"/>
</svg>
