<svg width="12" height="12" viewBox="0 0 12 12" fill="none" xmlns="http://www.w3.org/2000/svg">
<path d="M5.92501 11.2C5.82501 11.2 5.72501 11.2 5.62501 11.1C5.52501 11.1 5.42501 11 5.42501 10.9L2.42501 7.90001C2.12501 7.70001 2.12501 7.30001 2.42501 7.00001C2.72501 6.70001 3.22501 6.70001 3.52501 7.00001L5.22501 8.70001V1.50001C5.22501 1.10001 5.52501 0.700012 6.02501 0.700012C6.52501 0.700012 6.82501 1.00001 6.82501 1.50001V8.70001L8.42501 7.00001C8.72501 6.70001 9.22501 6.70001 9.52501 7.00001C9.82501 7.30001 9.82501 7.80001 9.52501 8.10001L6.52501 11.1C6.42501 11.2 6.32501 11.2 6.32501 11.3C6.12501 11.2 6.02501 11.2 5.92501 11.2Z" fill="#1E1E1E"/>
</svg>
