<svg width="16" height="16" viewBox="0 0 16 16" fill="none" xmlns="http://www.w3.org/2000/svg">
<path d="M6.09999 12.525C5.89999 12.525 5.69999 12.425 5.59999 12.325L1.59999 8.325C1.49999 8.225 1.39999 8.125 1.39999 8.025C1.39999 7.925 1.29999 7.825 1.29999 7.725C1.29999 7.625 1.29999 7.525 1.39999 7.425C1.39999 7.325 1.49999 7.225 1.59999 7.225L5.59999 3.225C5.89999 2.925 6.39999 2.925 6.69999 3.225C6.99999 3.525 6.99999 4.025 6.69999 4.325L3.89999 6.925H14.1C14.5 6.925 14.9 7.225 14.9 7.725C14.9 8.225 14.5 8.525 14.1 8.525H3.89999L6.59999 11.225C6.89999 11.525 6.89999 12.025 6.59999 12.325C6.49999 12.425 6.29999 12.525 6.09999 12.525Z" fill="#1E1E1E"/>
</svg>
