<svg width="12" height="12" viewBox="0 0 12 12" fill="none" xmlns="http://www.w3.org/2000/svg">
<path d="M7.40001 9.725C7.20001 9.725 7.00001 9.625 6.90001 9.425C6.60001 9.125 6.60001 8.725 6.90001 8.425L8.60001 6.725H1.40001C1.00001 6.725 0.700012 6.325 0.700012 5.925C0.700012 5.525 1.00001 5.125 1.50001 5.125H8.70001L6.90001 3.425C6.60001 3.125 6.60001 2.725 6.90001 2.425C7.20001 2.125 7.70001 2.125 8.00001 2.425L11 5.425C11.1 5.525 11.1 5.625 11.2 5.625C11.2 5.725 11.3 5.825 11.3 5.925C11.3 6.025 11.3 6.125 11.2 6.225C11.2 6.325 11.1 6.425 11 6.425L8.00001 9.425C7.80001 9.625 7.60001 9.725 7.40001 9.725Z" fill="#1E1E1E"/>
</svg>
