<svg width="16" height="16" viewBox="0 0 16 16" fill="none" xmlns="http://www.w3.org/2000/svg">
<path d="M7.925 14.6C7.825 14.6 7.725 14.6 7.625 14.5C7.525 14.5 7.425 14.4 7.425 14.3L3.425 10.3C3.125 10 3.125 9.5 3.425 9.2C3.725 8.9 4.225 8.9 4.525 9.2L7.225 11.9V1.8C7.225 1.4 7.525 1 8.025 1C8.525 1 8.725 1.4 8.725 1.8V12L11.425 9.3C11.725 9 12.225 9 12.525 9.3C12.825 9.6 12.825 10.1 12.525 10.4L8.525 14.4C8.425 14.5 8.325 14.5 8.325 14.6C8.125 14.5 8.025 14.6 7.925 14.6Z" fill="#1E1E1E"/>
</svg>
