<svg width="16" height="16" viewBox="0 0 16 16" fill="none" xmlns="http://www.w3.org/2000/svg">
<path d="M7.825 14.675C7.425 14.675 7.025 14.375 7.025 13.875V3.675L4.325 6.375C4.025 6.675 3.525 6.675 3.225 6.375C2.925 6.075 2.925 5.575 3.225 5.275L7.225 1.275C7.325 1.175 7.425 1.175 7.425 1.075C7.625 0.975 7.825 0.975 8.025 1.075C8.125 1.075 8.225 1.175 8.225 1.275L12.225 5.275C12.525 5.575 12.525 6.075 12.225 6.375C11.925 6.675 11.425 6.675 11.125 6.375L8.625 3.675V13.875C8.625 14.275 8.225 14.675 7.825 14.675Z" fill="#1E1E1E"/>
</svg>
