<svg width="24" height="24" viewBox="0 0 24 24" fill="none" xmlns="http://www.w3.org/2000/svg">
<path d="M8.50001 17.4C8.30001 17.4 8.00001 17.3 7.90001 17.1L3.40001 12.6C3.30001 12.5 3.20001 12.4 3.20001 12.3C3.20001 12.2 3.10001 12.1 3.10001 12C3.10001 11.9 3.10001 11.8 3.20001 11.7C3.20001 11.6 3.30001 11.5 3.40001 11.4L7.90001 6.90001C8.30001 6.50001 8.80001 6.50001 9.20001 6.90001C9.60001 7.30001 9.60001 7.80001 9.20001 8.20001L6.20001 11.2H20C20.5 11.2 20.9 11.6 20.9 12.1C20.9 12.6 20.5 13 20 13H6.20001L9.20001 16C9.60001 16.4 9.60001 16.9 9.20001 17.3C9.00001 17.3 8.70001 17.4 8.50001 17.4Z" fill="#1E1E1E"/>
</svg>
