<svg width="12" height="12" viewBox="0 0 12 12" fill="none" xmlns="http://www.w3.org/2000/svg">
<path d="M6.025 11.275C5.625 11.275 5.225 10.975 5.225 10.475V3.37499L3.525 5.07499C3.225 5.37499 2.825 5.37499 2.525 5.07499C2.225 4.77499 2.225 4.37499 2.525 4.07499L5.525 1.07499C5.625 0.974988 5.725 0.974988 5.725 0.874988C5.925 0.774988 6.125 0.774988 6.325 0.874988C6.425 0.874988 6.525 0.974988 6.525 1.07499L9.525 4.07499C9.825 4.37499 9.825 4.87499 9.525 5.17499C9.225 5.47499 8.825 5.37499 8.525 5.07499L6.825 3.37499V10.575C6.825 10.975 6.425 11.275 6.025 11.275Z" fill="#1E1E1E"/>
</svg>
