<svg width="12" height="12" viewBox="0 0 12 12" fill="none" xmlns="http://www.w3.org/2000/svg">
<path d="M4.50001 9.82499C4.30001 9.82499 4.10001 9.72499 4.00001 9.52499L1.00001 6.52499C0.900012 6.52499 0.800012 6.42499 0.800012 6.32499C0.800012 6.22499 0.700012 6.12499 0.700012 6.02499C0.700012 5.92499 0.700012 5.82499 0.800012 5.72499C0.800012 5.62499 0.900012 5.52499 1.00001 5.52499L4.00001 2.52499C4.30001 2.22499 4.80001 2.22499 5.10001 2.52499C5.40001 2.82499 5.40001 3.32499 5.10001 3.62499L3.30001 5.22499H10.5C10.9 5.22499 11.3 5.52499 11.3 6.02499C11.3 6.52499 11 6.82499 10.5 6.82499H3.30001L5.00001 8.52499C5.30001 8.82499 5.30001 9.32499 5.00001 9.62499C4.90001 9.72499 4.70001 9.82499 4.50001 9.82499Z" fill="#1E1E1E"/>
</svg>
