<svg width="24" height="24" viewBox="0 0 24 24" fill="none" xmlns="http://www.w3.org/2000/svg">
<path d="M11.9138 19.8C11.4138 19.8 11.0138 19.4 11.0138 18.9V7.1L7.51384 10.6C7.11384 11 6.61384 11 6.21384 10.6C5.91384 10.2 5.91384 9.6 6.31384 9.3L11.3138 4.3C11.4138 4.2 11.5138 4.1 11.6138 4.1C11.7138 4.1 11.8138 4 11.9138 4C12.0138 4 12.1138 4 12.2138 4.1C12.3138 4.1 12.4138 4.2 12.5138 4.3L17.5138 9.3C17.9138 9.7 17.9138 10.2 17.5138 10.6C17.1138 11 16.6138 11 16.2138 10.6L12.7138 7.1V18.9C12.8138 19.4 12.4138 19.8 11.9138 19.8Z" fill="#1E1E1E"/>
</svg>
