<svg width="12" height="12" viewBox="0 0 12 12" fill="none" xmlns="http://www.w3.org/2000/svg">
<path d="M7.80001 11.2H4.20001C3.00001 11.2 2.30001 11.2 1.80001 10.9C1.30001 10.6 0.900012 10.2 0.600012 9.70002C0.200012 9.20002 0.200012 8.50002 0.200012 7.30002V5.70002C0.200012 4.50002 0.200012 3.80002 0.500012 3.30002C0.800012 2.70002 1.20001 2.30002 1.80001 2.00002C2.30001 1.80002 3.00001 1.80002 4.20001 1.80002H7.80001C9.00001 1.80002 9.70001 1.80002 10.2 2.10002C10.7 2.40002 11.1 2.80002 11.4 3.30002C11.7 3.90002 11.7 4.60002 11.7 5.80002V7.40002C11.7 8.60002 11.7 9.30002 11.4 9.80002C11.1 10.3 10.7 10.7 10.2 11C9.70001 11.2 9.00001 11.2 7.80001 11.2ZM4.20001 3.20002C3.20001 3.20002 2.70001 3.20002 2.40001 3.30002C2.20001 3.50002 2.00001 3.70002 1.90001 3.90002C1.80001 4.20002 1.80001 4.70002 1.80001 5.70002V7.30002C1.80001 8.30002 1.80001 8.80002 1.90001 9.10002C2.00001 9.30002 2.20001 9.50002 2.40001 9.60002C2.70001 9.70002 3.20001 9.70002 4.20001 9.70002H7.80001C8.80001 9.70002 9.30001 9.70002 9.60001 9.60002C9.80001 9.50002 10 9.30002 10.1 9.10002C10.2 8.80002 10.2 8.30002 10.2 7.30002V5.70002C10.2 4.70002 10.2 4.20002 10.1 3.90002C10 3.70002 9.80001 3.50002 9.60001 3.40002C9.30001 3.20002 8.80001 3.20002 7.80001 3.20002H4.20001Z" fill="#1E1E1E"/>
<path d="M3.49999 2.80001C3.09999 2.80001 2.79999 2.40001 2.79999 2.00001V1.00001C2.79999 0.600012 3.09999 0.200012 3.59999 0.200012C4.09999 0.200012 4.19999 0.600012 4.19999 1.00001V2.00001C4.19999 2.40001 3.89999 2.80001 3.49999 2.80001Z" fill="#1E1E1E"/>
<path d="M8.49999 2.80001C8.09999 2.80001 7.79999 2.40001 7.79999 2.00001V1.00001C7.79999 0.600012 8.09999 0.200012 8.59999 0.200012C9.09999 0.200012 9.19999 0.600012 9.19999 1.00001V2.00001C9.19999 2.40001 8.89999 2.80001 8.49999 2.80001Z" fill="#1E1E1E"/>
<path d="M10.5 4.80001H1.49999C1.09999 4.80001 0.799988 4.40001 0.799988 4.00001C0.799988 3.60001 1.09999 3.20001 1.59999 3.20001H10.6C11 3.20001 11.4 3.50001 11.4 4.00001C11.4 4.50001 10.9 4.80001 10.5 4.80001Z" fill="#1E1E1E"/>
</svg>
