<svg width="24" height="24" viewBox="0 0 24 24" fill="none" xmlns="http://www.w3.org/2000/svg">
<path fill-rule="evenodd" clip-rule="evenodd" d="M8.3 2.9C8.3 2.40294 7.89705 2 7.4 2C6.90294 2 6.5 2.40294 6.5 2.9V4.25002H5.9C3.74609 4.25002 2 5.99611 2 8.15002V18.15C2 20.3039 3.74609 22.05 5.9 22.05H17.9C20.0539 22.05 21.8 20.3039 21.8 18.15V8.15002C21.8 5.99611 20.0539 4.25002 17.9 4.25002H17.3V2.9C17.3 2.40294 16.8971 2 16.4 2C15.9029 2 15.5 2.40294 15.5 2.9V4.25002H8.3V2.9ZM3.8 18.15V9.15002H20V18.15C20 19.3098 19.0598 20.25 17.9 20.25H5.9C4.7402 20.25 3.8 19.3098 3.8 18.15ZM6.65 10.75C6.15294 10.75 5.75 11.1529 5.75 11.65C5.75 12.1471 6.15294 12.55 6.65 12.55H8.15C8.64705 12.55 9.05 12.1471 9.05 11.65C9.05 11.1529 8.64705 10.75 8.15 10.75H6.65ZM11.15 10.75C10.6529 10.75 10.25 11.1529 10.25 11.65C10.25 12.1471 10.6529 12.55 11.15 12.55H12.65C13.1471 12.55 13.55 12.1471 13.55 11.65C13.55 11.1529 13.1471 10.75 12.65 10.75H11.15ZM15.65 10.75C15.153 10.75 14.75 11.1529 14.75 11.65C14.75 12.1471 15.153 12.55 15.65 12.55H17.15C17.6471 12.55 18.05 12.1471 18.05 11.65C18.05 11.1529 17.6471 10.75 17.15 10.75H15.65ZM6.65 13.75C6.15294 13.75 5.75 14.1529 5.75 14.65C5.75 15.1471 6.15294 15.55 6.65 15.55H8.15C8.64705 15.55 9.05 15.1471 9.05 14.65C9.05 14.1529 8.64705 13.75 8.15 13.75H6.65ZM11.15 13.75C10.6529 13.75 10.25 14.1529 10.25 14.65C10.25 15.1471 10.6529 15.55 11.15 15.55H12.65C13.1471 15.55 13.55 15.1471 13.55 14.65C13.55 14.1529 13.1471 13.75 12.65 13.75H11.15ZM15.65 13.75C15.153 13.75 14.75 14.1529 14.75 14.65C14.75 15.1471 15.153 15.55 15.65 15.55H17.15C17.6471 15.55 18.05 15.1471 18.05 14.65C18.05 14.1529 17.6471 13.75 17.15 13.75H15.65ZM6.65 16.75C6.15294 16.75 5.75 17.1529 5.75 17.65C5.75 18.1471 6.15294 18.55 6.65 18.55H8.15C8.64705 18.55 9.05 18.1471 9.05 17.65C9.05 17.1529 8.64705 16.75 8.15 16.75H6.65ZM11.15 16.75C10.6529 16.75 10.25 17.1529 10.25 17.65C10.25 18.1471 10.6529 18.55 11.15 18.55H12.65C13.1471 18.55 13.55 18.1471 13.55 17.65C13.55 17.1529 13.1471 16.75 12.65 16.75H11.15ZM15.65 16.75C15.153 16.75 14.75 17.1529 14.75 17.65C14.75 18.1471 15.153 18.55 15.65 18.55H17.15C17.6471 18.55 18.05 18.1471 18.05 17.65C18.05 17.1529 17.6471 16.75 17.15 16.75H15.65Z" fill="#1E1E1E"/>
</svg>
