<svg width="16" height="16" viewBox="0 0 16 16" fill="none" xmlns="http://www.w3.org/2000/svg">
<path fill-rule="evenodd" clip-rule="evenodd" d="M5 0.5C5.41421 0.5 5.75 0.835787 5.75 1.25V2.25H10.25V1.25C10.25 0.835787 10.5858 0.5 11 0.5C11.4142 0.5 11.75 0.835787 11.75 1.25V2.25H12C13.6569 2.25 15 3.59315 15 5.25V7.25V12.25C15 13.9068 13.6569 15.25 12 15.25H4C2.34315 15.25 1 13.9068 1 12.25V7.25V5.25C1 3.59315 2.34315 2.25 4 2.25H4.25V1.25C4.25 0.835787 4.58579 0.5 5 0.5ZM13.5 7.25H2.5V12.25C2.5 13.0784 3.17157 13.75 4 13.75H12C12.8284 13.75 13.5 13.0784 13.5 12.25V7.25ZM5 8.75003C4.44772 8.75003 4 9.19774 4 9.75003C4 10.3023 4.44772 10.75 5 10.75H6C6.55228 10.75 7 10.3023 7 9.75003C7 9.19774 6.55228 8.75003 6 8.75003H5Z" fill="#1E1E1E"/>
</svg>
