<svg width="16" height="16" viewBox="0 0 16 16" fill="none" xmlns="http://www.w3.org/2000/svg">
<path d="M7.93333 15.2C3.93333 15.2 0.666664 11.9333 0.666664 7.93332C0.666664 3.93332 3.93333 0.666656 7.93333 0.666656C11.9333 0.666656 15.2 3.93332 15.2 7.93332C15.2 11.9333 11.9333 15.2 7.93333 15.2ZM7.93333 1.86666C4.6 1.86666 1.86666 4.59999 1.86666 7.93332C1.86666 11.2667 4.6 14 7.93333 14C11.2667 14 14 11.2667 14 7.93332C14 4.59999 11.2667 1.86666 7.93333 1.86666Z" fill="#1E1E1E"/>
<path d="M7.98155 8.66548C6.6418 8.66548 5.30241 8.66631 3.96266 8.66506C3.5977 8.66464 3.34191 8.39859 3.33354 8.02011C3.32553 7.66786 3.54713 7.37723 3.85459 7.33809C3.90262 7.33185 3.95138 7.33351 3.99977 7.33351C6.67309 7.33351 9.3464 7.3331 12.0194 7.33351C12.3636 7.33351 12.6114 7.54628 12.6576 7.87521C12.7194 8.31531 12.4596 8.66215 12.0547 8.66423C11.1817 8.66881 10.3088 8.66548 9.43592 8.66548C8.95161 8.66548 8.46658 8.66548 7.98155 8.66548Z" fill="#1E1E1E"/>
</svg>
