<svg width="24" height="24" viewBox="0 0 24 24" fill="none" xmlns="http://www.w3.org/2000/svg">
<path d="M11.9 22.8C5.9 22.8 1 17.9 1 11.9C1 5.9 5.9 1 11.9 1C17.9 1 22.8 5.9 22.8 11.9C22.8 17.9 17.9 22.8 11.9 22.8ZM11.9 2.8C6.9 2.8 2.8 6.9 2.8 11.9C2.8 16.9 6.9 21 11.9 21C16.9 21 21 16.9 21 11.9C21 6.9 16.9 2.8 11.9 2.8Z" fill="#1E1E1E"/>
<path d="M11.9723 12.9982C9.9627 12.9982 7.95362 12.9995 5.944 12.9976C5.39656 12.997 5.01287 12.5979 5.00032 12.0302C4.98831 11.5018 5.3207 11.0659 5.7819 11.0072C5.85394 10.9978 5.92708 11.0003 5.99967 11.0003C10.0096 11.0003 14.0196 10.9997 18.029 11.0003C18.5454 11.0003 18.9171 11.3194 18.9864 11.8128C19.0792 12.473 18.6895 12.9932 18.082 12.9964C16.7726 13.0032 15.4633 12.9982 14.1539 12.9982C13.4274 12.9982 12.6999 12.9982 11.9723 12.9982Z" fill="#1E1E1E"/>
</svg>
