<svg width="12" height="12" viewBox="0 0 12 12" fill="none" xmlns="http://www.w3.org/2000/svg">
<path d="M5.95 11.4C2.95 11.4 0.5 8.95 0.5 5.95C0.5 2.95 2.95 0.5 5.95 0.5C8.95 0.5 11.4 2.95 11.4 5.95C11.4 8.95 8.95 11.4 5.95 11.4ZM5.95 1.4C3.45 1.4 1.4 3.45 1.4 5.95C1.4 8.45 3.45 10.5 5.95 10.5C8.45 10.5 10.5 8.45 10.5 5.95C10.5 3.45 8.45 1.4 5.95 1.4Z" fill="#1E1E1E"/>
<path d="M5.98617 6.49912C4.98135 6.49912 3.97681 6.49975 2.972 6.49881C2.69828 6.4985 2.50643 6.29895 2.50016 6.01509C2.49415 5.75091 2.66035 5.53294 2.89095 5.50359C2.92697 5.4989 2.96354 5.50015 2.99983 5.50015C5.00482 5.50015 7.00981 5.49984 9.01452 5.50015C9.27268 5.50015 9.45853 5.65972 9.49319 5.90642C9.53958 6.2365 9.34473 6.49662 9.04099 6.49819C8.38631 6.50162 7.73163 6.49912 7.07694 6.49912C6.71371 6.49912 6.34994 6.49912 5.98617 6.49912Z" fill="#1E1E1E"/>
</svg>
