<svg width="12" height="12" viewBox="0 0 12 12" fill="none" xmlns="http://www.w3.org/2000/svg">
<path d="M0.825 11.85L0.75 10.65C0.75 10.575 0.75 10.425 0.75 10.35V4.35C0.75 3.675 0.75 3.225 0.75 2.85C0.75 2.475 0.825 2.175 0.975 1.95C1.2 1.5 1.5 1.2 1.95 0.975C2.175 0.9 2.475 0.825 2.85 0.75C3.225 0.75 3.675 0.75 4.35 0.75H7.65C8.325 0.75 8.775 0.75 9.15 0.75C9.525 0.75 9.825 0.825 10.05 0.975C10.5 1.2 10.8 1.5 11.025 1.95C11.175 2.175 11.175 2.475 11.25 2.85C11.25 3.225 11.25 3.675 11.25 4.35V6.15C11.25 6.825 11.25 7.275 11.25 7.65C11.25 8.025 11.175 8.325 11.025 8.55C10.8 9 10.5 9.3 10.05 9.525C9.825 9.675 9.525 9.675 9.15 9.75C8.775 9.75 8.325 9.75 7.65 9.75H4.5C4.275 9.75 4.125 9.75 3.975 9.75C3.375 9.825 2.775 10.05 2.325 10.425C2.25 10.5 2.1 10.65 1.95 10.8L1.875 10.875C1.8 10.95 1.725 11.025 1.725 11.025L0.825 11.85ZM4.35 1.875C3.75 1.875 3.3 1.875 3 1.875C2.7 1.875 2.55 1.95 2.55 1.95C2.25 2.1 2.1 2.25 2.025 2.475C1.95 2.55 1.95 2.7 1.875 3C1.875 3.3 1.875 3.75 1.875 4.35V9.375C2.475 8.925 3.15 8.7 3.9 8.625C4.05 8.625 4.275 8.625 4.5 8.625H7.65C8.325 8.625 8.7 8.625 9 8.625C9.225 8.625 9.375 8.55 9.45 8.55C9.675 8.475 9.825 8.25 9.975 8.025C10.05 7.95 10.05 7.8 10.05 7.575C10.05 7.275 10.05 6.825 10.05 6.225V4.35C10.05 3.675 10.05 3.3 10.05 3C10.05 2.775 9.975 2.625 9.975 2.55C9.9 2.25 9.75 2.1 9.525 2.025C9.45 1.95 9.3 1.95 9.075 1.95C8.775 1.95 8.325 1.95 7.725 1.95H4.35V1.875Z" fill="#1E1E1E"/>
<path d="M4.875 6C5.28921 6 5.625 5.66421 5.625 5.25C5.625 4.83579 5.28921 4.5 4.875 4.5C4.46079 4.5 4.125 4.83579 4.125 5.25C4.125 5.66421 4.46079 6 4.875 6Z" fill="#1E1E1E"/>
<path d="M7.125 6C7.53921 6 7.875 5.66421 7.875 5.25C7.875 4.83579 7.53921 4.5 7.125 4.5C6.71079 4.5 6.375 4.83579 6.375 5.25C6.375 5.66421 6.71079 6 7.125 6Z" fill="#1E1E1E"/>
</svg>
