<svg width="24" height="24" viewBox="0 0 24 24" fill="none" xmlns="http://www.w3.org/2000/svg">
<path d="M4.00001 22.5C3.30001 22.5 2.60001 22.1 2.30001 21.4C2.10001 21 2.10001 20.6 2.10001 19.6V12C2.10001 8.00001 2.10001 6.00001 3.50001 4.50001C5.00001 3.10001 7.00001 3.10001 11 3.10001H13.5C17 3.10001 18.8 3.10001 20.1 4.20001C20.3 4.40001 20.6 4.60001 20.8 4.90001C21.9 6.30001 21.9 8.00001 21.9 11.5C21.9 15 21.9 16.8 20.8 18.1C20.6 18.3 20.4 18.6 20.1 18.8C18.7 19.9 17 19.9 13.5 19.9H9.30001C8.70001 19.9 8.40001 19.9 8.20001 19.9C7.70001 20 7.20001 20.2 6.80001 20.5C6.60001 20.6 6.40001 20.8 6.00001 21.3C5.30001 22 5.00001 22.3 4.60001 22.4C4.40001 22.5 4.20001 22.5 4.00001 22.5ZM3.90001 20.7C3.90001 20.7 4.00001 20.7 3.90001 20.7C4.10001 20.7 4.40001 20.3 4.70001 20C5.20001 19.5 5.40001 19.3 5.70001 19.1C6.30001 18.6 7.10001 18.3 7.90001 18.2C8.30001 18.1 8.60001 18.1 9.30001 18.1H13.5C16.6 18.1 18.1 18.1 19 17.4C19.2 17.3 19.3 17.1 19.4 17C20.1 16.1 20.1 14.6 20.1 11.5C20.1 8.40001 20.1 6.90001 19.4 6.00001C19.3 5.80001 19.1 5.70001 19 5.60001C18.1 4.90001 16.6 4.90001 13.5 4.90001H11C7.50001 4.90001 5.70001 4.90001 4.80001 5.80001C3.90001 6.70001 3.90001 8.50001 3.90001 12V19.6C3.90001 20.1 3.90001 20.6 3.90001 20.7Z" fill="#1E1E1E"/>
<path d="M7.5 13C6.7 13 6 12.3 6 11.5C6 10.7 6.7 10 7.5 10C8.3 10 9 10.7 9 11.5C9 12.3 8.3 13 7.5 13ZM7.5 10.8V11.6V10.8Z" fill="#1E1E1E"/>
<path d="M12 13C11.2 13 10.5 12.3 10.5 11.5C10.5 10.7 11.2 10 12 10C12.8 10 13.5 10.7 13.5 11.5C13.5 12.3 12.8 13 12 13ZM12 10.8V11.6V10.8Z" fill="#1E1E1E"/>
<path d="M16.5 13C15.7 13 15 12.3 15 11.5C15 10.7 15.7 10 16.5 10C17.3 10 18 10.7 18 11.5C18 12.3 17.3 13 16.5 13ZM16.5 10.8V11.6V10.8Z" fill="#1E1E1E"/>
</svg>
