<svg width="16" height="16" viewBox="0 0 16 16" fill="none" xmlns="http://www.w3.org/2000/svg">
<path d="M1.1 15.8L1 14.2C1 14.1 1 13.9 1 13.8V5.8C1 4.9 1 4.3 1 3.8C1 3.3 1.1 2.9 1.3 2.6C1.6 2 2 1.6 2.6 1.3C2.9 1.2 3.3 1.1 3.8 1C4.3 1 4.9 1 5.8 1H10.2C11.1 1 11.7 1 12.2 1C12.7 1 13.1 1.1 13.4 1.3C14 1.6 14.4 2 14.7 2.6C14.9 2.9 14.9 3.3 15 3.8C15 4.3 15 4.9 15 5.8V8.2C15 9.1 15 9.7 15 10.2C15 10.7 14.9 11.1 14.7 11.4C14.4 12 14 12.4 13.4 12.7C13.1 12.9 12.7 12.9 12.2 13C11.7 13 11.1 13 10.2 13H6C5.7 13 5.5 13 5.3 13C4.5 13.1 3.7 13.4 3.1 13.9C3 14 2.8 14.2 2.6 14.4L2.5 14.5C2.4 14.6 2.3 14.7 2.3 14.7L1.1 15.8ZM5.8 2.5C5 2.5 4.4 2.5 4 2.5C3.6 2.5 3.4 2.6 3.4 2.6C3 2.8 2.8 3 2.7 3.3C2.6 3.4 2.6 3.6 2.5 4C2.5 4.4 2.5 5 2.5 5.8V12.5C3.3 11.9 4.2 11.6 5.2 11.5C5.4 11.5 5.7 11.5 6 11.5H10.2C11.1 11.5 11.6 11.5 12 11.5C12.3 11.5 12.5 11.4 12.6 11.4C12.9 11.3 13.1 11 13.3 10.7C13.4 10.6 13.4 10.4 13.4 10.1C13.4 9.7 13.4 9.1 13.4 8.3V5.8C13.4 4.9 13.4 4.4 13.4 4C13.4 3.7 13.3 3.5 13.3 3.4C13.2 3 13 2.8 12.7 2.7C12.6 2.6 12.4 2.6 12.1 2.6C11.7 2.6 11.1 2.6 10.3 2.6H5.8V2.5Z" fill="#1E1E1E"/>
<path d="M6.5 8C7.05228 8 7.5 7.55228 7.5 7C7.5 6.44772 7.05228 6 6.5 6C5.94772 6 5.5 6.44772 5.5 7C5.5 7.55228 5.94772 8 6.5 8Z" fill="#1E1E1E"/>
<path d="M9.5 8C10.0523 8 10.5 7.55228 10.5 7C10.5 6.44772 10.0523 6 9.5 6C8.94772 6 8.5 6.44772 8.5 7C8.5 7.55228 8.94772 8 9.5 8Z" fill="#1E1E1E"/>
</svg>
