<svg width="24" height="24" viewBox="0 0 24 24" fill="none" xmlns="http://www.w3.org/2000/svg">
<path d="M11.9345 4.81975C12.6079 4.39289 13.2095 3.93129 13.8774 3.6026C16.1038 2.50733 18.96 2.93915 20.7948 4.62121C22.9401 6.58839 23.421 9.01386 22.6644 11.7393C22.1724 13.5102 21.1704 15.0003 19.9582 16.3548C18.0561 18.4792 15.7635 20.1083 13.3204 21.5427C12.9487 21.7611 12.5648 21.9596 12.1953 22.1819C12.0597 22.2635 11.9571 22.2646 11.8198 22.1885C9.54762 20.9328 7.37307 19.5342 5.45332 17.7727C3.86888 16.319 2.50117 14.6959 1.67228 12.683C0.906804 10.8239 0.72481 8.92948 1.49525 7.02573C3.18503 2.84926 8.51632 1.67347 11.8391 4.73372C11.8854 4.77673 11.9345 4.81975 11.9345 4.81975ZM12.0045 7.61362C11.6554 7.18842 11.3394 6.77094 10.9898 6.38379C8.98288 4.15741 5.57189 4.25281 3.76465 6.5917C2.77361 7.87392 2.58224 9.32932 2.93851 10.8741C3.30966 12.4828 4.18102 13.824 5.25092 15.0456C7.12104 17.1804 9.41691 18.7714 11.8589 20.1706C11.9383 20.2164 12.0933 20.2059 12.176 20.1579C12.7468 19.8254 13.3165 19.4895 13.8708 19.1299C15.7988 17.8808 17.5983 16.4778 19.0609 14.686C20.1258 13.3811 20.968 11.9577 21.1808 10.2498C21.4009 8.48553 20.8924 6.96451 19.49 5.82843C17.4996 4.21697 14.7344 4.46734 13.0182 6.38213C12.6702 6.77149 12.3536 7.18842 12.0045 7.61362Z" fill="#1E1E1E"/>
</svg>
