<svg width="16" height="16" viewBox="0 0 16 16" fill="none" xmlns="http://www.w3.org/2000/svg">
<path d="M7.95633 3.21317C8.40524 2.92859 8.80636 2.62086 9.2516 2.40173C10.7359 1.67156 12.64 1.95944 13.8632 3.08081C15.2934 4.39226 15.614 6.00924 15.1096 7.82623C14.7816 9.0068 14.1136 10.0002 13.3055 10.9032C12.0374 12.3194 10.509 13.4055 8.88026 14.3618C8.63246 14.5074 8.37657 14.6398 8.13023 14.7879C8.03979 14.8423 7.9714 14.8431 7.87985 14.7923C6.36508 13.9552 4.91539 13.0228 3.63555 11.8485C2.57926 10.8793 1.66745 9.79727 1.11486 8.4553C0.604541 7.21591 0.483211 5.95299 0.996836 4.68382C2.12336 1.89951 5.67755 1.11565 7.89272 3.15581C7.9236 3.18449 7.95633 3.21317 7.95633 3.21317ZM8.00302 5.07575C7.77029 4.79228 7.55962 4.51396 7.32652 4.25586C5.98859 2.7716 3.7146 2.83521 2.50977 4.39447C1.84908 5.24928 1.7215 6.21954 1.95901 7.24937C2.20645 8.32184 2.78735 9.216 3.50062 10.0304C4.74736 11.4536 6.27795 12.5143 7.90596 13.4471C7.9589 13.4776 8.06221 13.4706 8.11736 13.4386C8.49789 13.2169 8.87769 12.993 9.24719 12.7533C10.5325 11.9205 11.7322 10.9852 12.7073 9.79065C13.4172 8.92076 13.9786 7.97183 14.1206 6.83317C14.2673 5.65702 13.9283 4.64301 12.9933 3.88562C11.6664 2.81131 9.82295 2.97823 8.67878 4.25476C8.44679 4.51433 8.23575 4.79228 8.00302 5.07575Z" fill="#1E1E1E"/>
</svg>
