<svg width="12" height="12" viewBox="0 0 12 12" fill="none" xmlns="http://www.w3.org/2000/svg">
<path d="M5.96724 2.40987C6.30393 2.19645 6.60477 1.96565 6.9387 1.8013C8.05189 1.25367 9.47998 1.46958 10.3974 2.31061C11.4701 3.2942 11.7105 4.50693 11.3322 5.86967C11.0862 6.7551 10.5852 7.50016 9.97908 8.1774C9.02803 9.23958 7.88175 10.0541 6.66019 10.7714C6.47434 10.8805 6.28242 10.9798 6.09767 11.0909C6.02984 11.1318 5.97855 11.1323 5.90989 11.0943C4.77381 10.4664 3.68654 9.76708 2.72666 8.88635C1.93444 8.15948 1.25059 7.34795 0.836139 6.34148C0.453402 5.41193 0.362405 4.46474 0.747624 3.51286C1.59251 1.42463 4.25816 0.836737 5.91954 2.36686C5.9427 2.38837 5.96724 2.40987 5.96724 2.40987ZM6.00226 3.80681C5.82771 3.59421 5.66971 3.38547 5.49489 3.19189C4.49144 2.0787 2.78595 2.12641 1.88232 3.29585C1.38681 3.93696 1.29112 4.66466 1.46925 5.43703C1.65483 6.24138 2.09051 6.912 2.62546 7.52278C3.56052 8.59019 4.70846 9.38572 5.92946 10.0853C5.96917 10.1082 6.04666 10.1029 6.08802 10.079C6.37342 9.91268 6.65826 9.74475 6.93539 9.56496C7.8994 8.94039 8.79916 8.23889 9.53044 7.34299C10.0629 6.69057 10.484 5.97887 10.5904 5.12488C10.7004 4.24276 10.4462 3.48226 9.74498 2.91422C8.7498 2.10848 7.36721 2.23367 6.50908 3.19107C6.33509 3.38574 6.17681 3.59421 6.00226 3.80681Z" fill="#1E1E1E"/>
</svg>
