<svg width="24" height="24" viewBox="0 0 24 24" fill="none" xmlns="http://www.w3.org/2000/svg">
<path d="M18.2 22.4H17.6C17.5 22.4 17.4 22.4 17.3 22.4C15.8 22.3 14.6 21.1 14.5 19.6C14.5 19.5 14.5 19.5 14.5 19.3V16.4C14.5 15 13.3 13.8 11.9 13.8C10.5 13.8 9.3 15 9.3 16.4V19.3C9.3 19.4 9.3 19.5 9.3 19.6C9.2 21.1 8 22.3 6.5 22.4C6.4 22.4 6.4 22.4 6.2 22.4H5.8C5 22.4 4.6 22.4 4.2 22.3C3.3 22 2.5 21.3 2.3 20.4C2.2 20 2.2 19.6 2.2 18.8V12.2C2.2 11 2.2 10.4 2.4 9.7C2.4 9.1 2.7 8.5 3.1 8C3.5 7.5 4 7.1 4.9 6.4L7.5 4.4C9 3.2 9.8 2.6 10.7 2.4C11.5 2.2 12.4 2.2 13.3 2.4C14.2 2.7 15 3.2 16.5 4.4L19.1 6.4C20 7.1 20.5 7.5 20.9 8C21.3 8.5 21.5 9 21.7 9.6C21.9 10.2 21.9 10.9 21.9 12.1V18.7C21.9 19.5 21.9 19.9 21.8 20.3C21.5 21.2 20.8 22 19.9 22.2C19.4 22.4 19 22.4 18.2 22.4ZM12 12.1C14.4 12.1 16.4 14.1 16.4 16.5V19.6C16.4 20.2 16.9 20.6 17.4 20.6H18.2C18.8 20.6 19.1 20.6 19.3 20.6C19.7 20.5 19.9 20.2 20 19.9C20 19.7 20 19.4 20 18.8V12.2C20 11.1 20 10.6 19.9 10.2C19.8 9.8 19.6 9.5 19.4 9.2C19.1 8.9 18.7 8.5 17.9 7.9L15.3 5.9C14 4.9 13.3 4.4 12.7 4.2C12.2 4.1 11.6 4.1 11.1 4.2C10.5 4.4 9.8 4.9 8.5 5.9L6 7.8C5.2 8.5 4.7 8.8 4.5 9.1C4.3 9.4 4.1 9.7 4 10.1C3.9 10.5 3.9 11 3.9 12.1V18.7C3.9 19.3 3.9 19.6 3.9 19.8C4 20.2 4.3 20.4 4.6 20.5C4.8 20.5 5.1 20.5 5.7 20.5H6.5C7.1 20.5 7.5 20 7.5 19.5V16.4C7.6 14.1 9.6 12.1 12 12.1Z" fill="#1E1E1E"/>
</svg>
