<svg width="16" height="16" viewBox="0 0 16 16" fill="none" xmlns="http://www.w3.org/2000/svg">
<path d="M12.2 15.1C10.8 15.1 9.6 13.9 9.6 12.5V11C9.6 10.7 9.6 10.6 9.6 10.5C9.5 9.9 9.1 9.5 8.5 9.4C8.4 9.4 8.3 9.4 8 9.4C7.7 9.4 7.6 9.4 7.5 9.4C6.9 9.5 6.5 9.9 6.4 10.5C6.4 10.6 6.4 10.7 6.4 11V12.5C6.4 13.9 5.2 15.1 3.8 15.1C2.4 15.1 1.2 13.9 1.2 12.5V7.6C1.2 7 1.2 6.6 1.3 6.3C1.4 6 1.5 5.7 1.7 5.4C2 5 2.3 4.8 2.8 4.5L5.6 2.3C6.4 1.7 6.8 1.4 7.3 1.2C7.8 1.1 8.3 1.1 8.7 1.2C9.2 1.3 9.6 1.7 10.4 2.3L13.2 4.5C13.7 4.9 14 5.1 14.2 5.4C14.4 5.7 14.5 6 14.6 6.3C14.7 6.7 14.7 7 14.7 7.6V12.5C14.8 13.9 13.6 15.1 12.2 15.1ZM8 7.9C8.4 7.9 8.5 7.9 8.7 7.9C9.9 8.1 10.9 9 11.1 10.3C11.1 10.5 11.1 10.6 11.1 11V12.5C11.1 13.1 11.6 13.6 12.2 13.6C12.8 13.6 13.3 13.1 13.3 12.5V7.6C13.3 7.1 13.3 6.8 13.3 6.7C13.3 6.6 13.2 6.4 13.1 6.3C13 6.2 12.8 6 12.4 5.7L9.5 3.5C8.9 3 8.6 2.7 8.3 2.7C8.1 2.6 7.9 2.6 7.6 2.7C7.4 2.7 7.1 3 6.5 3.4L3.7 5.6C3.3 5.9 3.1 6.1 3 6.2C2.9 6.4 2.8 6.5 2.8 6.6C2.8 6.8 2.8 7 2.8 7.5V12.4C2.8 13 3.3 13.5 3.9 13.5C4.5 13.5 5 13 5 12.4V11C5 10.6 5 10.5 5 10.3C5.2 9.1 6.1 8.1 7.4 7.9C7.5 7.9 7.6 7.9 8 7.9Z" fill="#1E1E1E"/>
</svg>
