<svg width="12" height="12" viewBox="0 0 12 12" fill="none" xmlns="http://www.w3.org/2000/svg">
<path d="M9.1 11.3C8 11.3 7.1 10.4 7.1 9.30001V8.20001C7.1 8.00001 7.1 7.90001 7.1 7.80001C7.1 7.50001 6.8 7.20001 6.4 7.10001C6.3 7.10001 6.2 7.10001 6 7.10001C5.8 7.10001 5.7 7.10001 5.6 7.10001C5.2 7.20001 4.9 7.50001 4.9 7.90001C4.9 8.00001 4.9 8.10001 4.9 8.30001V9.40001C4.9 10.5 4 11.4 2.9 11.4C1.8 11.4 0.900002 10.5 0.900002 9.40001V5.70001C0.900002 5.20001 0.900002 5.00001 1 4.70001C1 4.40001 1.2 4.20001 1.3 4.00001C1.5 3.80001 1.7 3.60001 2 3.30001L4.1 1.70001C4.7 1.20001 5 1.00001 5.5 0.900012C5.9 0.800012 6.2 0.800012 6.6 0.900012C7 1.00001 7.3 1.20001 7.8 1.70001L9.9 3.30001C10.3 3.60001 10.5 3.70001 10.6 4.00001C10.8 4.20001 11 4.40001 11 4.70001C11.1 5.00001 11.1 5.20001 11.1 5.70001V9.40001C11.1 10.5 10.2 11.3 9.1 11.3ZM6 5.90001C6.3 5.90001 6.4 5.90001 6.5 5.90001C7.5 6.00001 8.2 6.80001 8.3 7.70001C8.3 7.80001 8.3 7.90001 8.3 8.20001V9.30001C8.3 9.70001 8.6 10.1 9.1 10.1C9.6 10.1 9.9 9.80001 9.9 9.30001V5.70001C9.9 5.30001 9.9 5.10001 9.9 5.00001C9.9 4.90001 9.8 4.80001 9.8 4.70001C9.7 4.60001 9.5 4.50001 9.2 4.30001L7.1 2.60001C6.7 2.30001 6.4 2.10001 6.2 2.00001C6.1 2.00001 5.9 2.00001 5.8 2.00001C5.6 2.00001 5.4 2.20001 4.9 2.60001L2.8 4.30001C2.5 4.50001 2.3 4.60001 2.3 4.70001C2.2 4.80001 2.2 4.90001 2.1 5.00001C2.1 5.10001 2.1 5.30001 2.1 5.70001V9.40001C2.1 9.80001 2.4 10.2 2.9 10.2C3.4 10.2 3.7 9.90001 3.7 9.40001V8.20001C3.7 7.90001 3.7 7.80001 3.7 7.70001C3.8 6.80001 4.5 6.00001 5.5 5.90001C5.6 5.90001 5.7 5.90001 6 5.90001Z" fill="#1E1E1E"/>
</svg>
