<svg width="12" height="12" viewBox="0 0 12 12" fill="none" xmlns="http://www.w3.org/2000/svg">
<path d="M5.99999 11.6C2.89999 11.6 0.399994 9.09999 0.399994 5.99999C0.399994 2.89999 2.89999 0.399994 5.99999 0.399994C9.09999 0.399994 11.6 2.89999 11.6 5.99999C11.6 9.09999 9.09999 11.6 5.99999 11.6ZM5.99999 1.59999C3.59999 1.59999 1.59999 3.59999 1.59999 5.99999C1.59999 8.39999 3.59999 10.4 5.99999 10.4C8.39999 10.4 10.4 8.39999 10.4 5.99999C10.4 3.59999 8.39999 1.59999 5.99999 1.59999Z" fill="#1E1E1E"/>
<path d="M6.21426 2.5C6.42854 2.5 6.58926 2.55303 6.6964 2.71212C6.80354 2.87121 6.85711 3.0303 6.85711 3.24242C6.85711 3.45455 6.80354 3.61364 6.64283 3.77273C6.53568 3.93182 6.3214 3.98485 6.16068 3.98485C5.9464 3.98485 5.78568 3.93182 5.67854 3.77273C5.5714 3.61364 5.51783 3.45455 5.51783 3.24242C5.51783 3.0303 5.62497 2.87121 5.73211 2.71212C5.89283 2.60606 6.05354 2.5 6.21426 2.5ZM5.89283 4.7803C6.21426 4.7803 6.42854 4.88636 6.53568 5.04545C6.64283 5.25758 6.74997 5.4697 6.74997 5.78788C6.74997 5.94697 6.74997 6.10606 6.6964 6.37121C6.64283 6.63636 6.64283 6.90152 6.58926 7.16667C6.53568 7.43182 6.53568 7.69697 6.48211 7.90909C6.42854 8.12121 6.42854 8.2803 6.42854 8.38636C6.42854 8.49242 6.42854 8.54545 6.48211 8.59848C6.53568 8.65152 6.53568 8.65152 6.58926 8.65152C6.64283 8.65152 6.74997 8.59848 6.80354 8.49242C6.85711 8.38636 6.96426 8.22727 7.01783 7.90909L7.49997 8.06818C7.49997 8.17424 7.4464 8.33333 7.33926 8.49242C7.28568 8.65151 7.17854 8.81061 7.0714 8.9697C6.96426 9.12879 6.80354 9.23485 6.64283 9.34091C6.48211 9.44697 6.3214 9.5 6.10711 9.5C5.78568 9.5 5.51783 9.39394 5.41068 9.23485C5.30354 9.07576 5.24997 8.81061 5.24997 8.49242C5.24997 8.33333 5.24997 8.12121 5.30354 7.85606C5.35711 7.59091 5.35711 7.37879 5.41068 7.11364C5.46426 6.84848 5.46426 6.63636 5.51783 6.42424C5.5714 6.21212 5.5714 6 5.5714 5.89394C5.5714 5.78788 5.5714 5.73485 5.51783 5.68182C5.46426 5.62879 5.46426 5.62879 5.41068 5.62879C5.35711 5.62879 5.24997 5.68182 5.1964 5.78788C5.14283 5.89394 5.03568 6.05303 4.98211 6.37121L4.49997 6.21212C4.49997 6.10606 4.55354 5.94697 4.66068 5.78788C4.71425 5.62879 4.8214 5.4697 4.92854 5.31061C5.03568 5.15152 5.1964 5.04545 5.35711 4.93939C5.51783 4.83333 5.67854 4.7803 5.89283 4.7803Z" fill="#1E1E1E"/>
</svg>
