<svg width="16" height="16" viewBox="0 0 16 16" fill="none" xmlns="http://www.w3.org/2000/svg">
<path d="M5.1 15C4 15 3 14.5 2.2 13.8C1.5 13 1 12 1 10.9C1 9.8 1.5 8.8 2.2 8L4 6.2C4.8 5.5 5.8 5 6.9 5C8 5 9 5.5 9.8 6.2C10 6.5 10.2 6.7 10.4 7C10.6 7.4 10.5 7.8 10.1 8C9.7 8.2 9.3 8.1 9.1 7.7C9 7.6 8.9 7.4 8.7 7.3C7.7 6.3 6.1 6.3 5.1 7.3L3.3 9.1C2.8 9.6 2.6 10.2 2.6 10.9C2.6 11.6 2.9 12.2 3.3 12.7C4.3 13.7 5.9 13.7 6.9 12.7L7.5 12.1C7.8 11.8 8.3 11.8 8.6 12.1C8.9 12.4 8.9 12.9 8.6 13.2L8 13.8C7.2 14.5 6.2 15 5.1 15ZM9.1 11C8 11 7 10.5 6.2 9.8C6 9.5 5.8 9.3 5.6 9C5.4 8.6 5.5 8.2 5.9 8C6.3 7.8 6.7 7.9 6.9 8.3C7 8.4 7.1 8.6 7.3 8.7C8.3 9.7 9.9 9.7 10.9 8.7L12.7 6.9C13.2 6.4 13.4 5.8 13.4 5.1C13.4 4.4 13.1 3.8 12.7 3.3C11.7 2.3 10.1 2.3 9.1 3.3L8.5 3.9C8.2 4.2 7.7 4.2 7.4 3.9C7.1 3.6 7.1 3.1 7.4 2.8L8 2.2C8.8 1.5 9.8 1 10.9 1C12 1 13 1.4 13.8 2.2C14.6 3 15 4 15 5.1C15 6.2 14.6 7.2 13.8 8L12 9.8C11.2 10.5 10.2 11 9.1 11Z" fill="#1E1E1E"/>
</svg>
