<svg width="24" height="24" viewBox="0 0 24 24" fill="none" xmlns="http://www.w3.org/2000/svg">
<path d="M7.8 21.6C6.3 21.6 4.8 21 3.7 19.9C2.6 18.8 2 17.4 2 15.8C2 14.2 2.6 12.8 3.7 11.7L5.7 9.7C8 7.4 11.7 7.4 14 9.7C14.4 10.1 14.7 10.5 14.9 10.9C15.2 11.3 15 11.9 14.6 12.1C14.2 12.4 13.6 12.2 13.4 11.8C13.2 11.5 13 11.2 12.8 11C11.2 9.4 8.7 9.4 7.1 11L5.1 13C4.2 13.7 3.8 14.7 3.8 15.8C3.8 16.9 4.2 17.9 5 18.7C6.6 20.3 9.1 20.3 10.7 18.7L12.7 16.7C13.1 16.3 13.6 16.3 14 16.7C14.4 17.1 14.4 17.6 14 18L12 20C10.8 21.1 9.3 21.6 7.8 21.6ZM13.8 15.6C12.3 15.6 10.8 15 9.7 13.9C9.3 13.6 9 13.2 8.8 12.8C8.5 12.4 8.7 11.8 9.1 11.6C9.5 11.3 10.1 11.5 10.3 11.9C10.5 12.2 10.7 12.5 10.9 12.7C12.5 14.3 15 14.3 16.6 12.7L18.6 10.7C20.2 9.1 20.2 6.6 18.6 5C17.9 4.2 16.9 3.8 15.8 3.8C14.7 3.8 13.7 4.2 12.9 5L10.9 7C10.5 7.4 10 7.4 9.6 7C9.2 6.6 9.2 6.1 9.6 5.7L11.6 3.7C12.8 2.6 14.2 2 15.8 2C17.4 2 18.8 2.6 19.9 3.7C22.2 6 22.2 9.7 19.9 12L17.9 14C16.8 15.1 15.3 15.6 13.8 15.6Z" fill="#1E1E1E"/>
</svg>
