<svg width="12" height="12" viewBox="0 0 12 12" fill="none" xmlns="http://www.w3.org/2000/svg">
<path d="M4.68483 6.43493C4.78945 6.61349 4.91835 6.78175 5.07153 6.93493C6.03803 7.90143 7.60503 7.90143 8.57153 6.93493L9.94654 5.55989C10.913 4.59339 10.913 3.02638 9.94654 2.05989C8.98004 1.09339 7.41304 1.09339 6.44654 2.05988L5.99996 2.50647M7.32153 5.55985C7.2169 5.38128 7.088 5.21302 6.93482 5.05984C5.96833 4.09335 4.40132 4.09334 3.43483 5.05984L2.05983 6.43488C1.09334 7.40138 1.09334 8.96839 2.05983 9.93488C3.02633 10.9014 4.59333 10.9014 5.55983 9.93489L5.99996 9.49474" stroke="#1E1E1E" stroke-width="1.2" stroke-linecap="round" stroke-linejoin="round"/>
</svg>
