<svg width="24" height="24" viewBox="0 0 24 24" fill="none" xmlns="http://www.w3.org/2000/svg">
<path fill-rule="evenodd" clip-rule="evenodd" d="M6.5 6.4C6.5 3.41766 8.91766 1 11.9 1C14.8823 1 17.3 3.41766 17.3 6.4V8.50648C17.6103 8.51226 17.8907 8.52319 18.1437 8.54386C18.6996 8.58928 19.2017 8.68616 19.6706 8.92507C20.4044 9.29898 21.001 9.8956 21.3749 10.6294C21.6138 11.0983 21.7107 11.6004 21.7561 12.1563C21.8 12.6934 21.8 13.3542 21.8 14.1623V14.2V16.6V16.6377C21.8 17.4458 21.8 18.1066 21.7561 18.6437C21.7107 19.1996 21.6138 19.7017 21.3749 20.1706C21.001 20.9044 20.4044 21.501 19.6706 21.8749C19.2017 22.1138 18.6996 22.2107 18.1437 22.2561C17.6066 22.3 16.9458 22.3 16.1377 22.3H16.1H7.7H7.66229C6.85424 22.3 6.19339 22.3 5.65631 22.2561C5.1004 22.2107 4.59832 22.1138 4.12943 21.8749C3.3956 21.501 2.79898 20.9044 2.42507 20.1706C2.18616 19.7017 2.08928 19.1996 2.04386 18.6437C1.99998 18.1066 1.99999 17.4458 2 16.6377V16.6V14.2V14.1623C1.99999 13.3542 1.99998 12.6934 2.04386 12.1563C2.08928 11.6004 2.18616 11.0983 2.42507 10.6294C2.79898 9.8956 3.3956 9.29898 4.12943 8.92507C4.59832 8.68616 5.1004 8.58928 5.65631 8.54386C5.90927 8.52319 6.18968 8.51226 6.5 8.50648V6.4ZM15.5 6.4V8.5H8.3V6.4C8.3 4.41178 9.91179 2.8 11.9 2.8C13.8882 2.8 15.5 4.41178 15.5 6.4ZM5.80289 10.3379C5.35829 10.3742 5.11946 10.4408 4.94662 10.5289C4.55148 10.7302 4.23022 11.0515 4.02888 11.4466C3.94081 11.6195 3.87421 11.8583 3.83788 12.3029C3.8007 12.758 3.8 13.3451 3.8 14.2V16.6C3.8 17.4549 3.8007 18.042 3.83788 18.4971C3.87421 18.9417 3.94081 19.1805 4.02888 19.3534C4.23022 19.7485 4.55148 20.0698 4.94662 20.2711C5.11946 20.3592 5.35829 20.4258 5.80289 20.4621C6.258 20.4993 6.84507 20.5 7.7 20.5H16.1C16.9549 20.5 17.542 20.4993 17.9971 20.4621C18.4417 20.4258 18.6805 20.3592 18.8534 20.2711C19.2485 20.0698 19.5698 19.7485 19.7711 19.3534C19.8592 19.1805 19.9258 18.9417 19.9621 18.4971C19.9993 18.042 20 17.4549 20 16.6V14.2C20 13.3451 19.9993 12.758 19.9621 12.3029C19.9258 11.8583 19.8592 11.6195 19.7711 11.4466C19.5698 11.0515 19.2485 10.7302 18.8534 10.5289C18.6805 10.4408 18.4417 10.3742 17.9971 10.3379C17.542 10.3007 16.9549 10.3 16.1 10.3H7.7C6.84507 10.3 6.258 10.3007 5.80289 10.3379ZM12.9 16.1324C13.4978 15.7866 13.9 15.1403 13.9 14.4C13.9 13.2954 13.0046 12.4 11.9 12.4C10.7954 12.4 9.89999 13.2954 9.89999 14.4C9.89999 15.1403 10.3022 15.7866 10.9 16.1324V17.9C10.9 18.4523 11.3477 18.9 11.9 18.9C12.4523 18.9 12.9 18.4523 12.9 17.9V16.1324Z" fill="#1E1E1E"/>
</svg>
