<svg width="12" height="12" viewBox="0 0 12 12" fill="none" xmlns="http://www.w3.org/2000/svg">
<path fill-rule="evenodd" clip-rule="evenodd" d="M3.25 3.2C3.25 1.70883 4.45883 0.5 5.95 0.5C7.44114 0.5 8.64999 1.70883 8.64999 3.2V4.25324C8.80514 4.25613 8.94534 4.2616 9.07185 4.27193C9.3498 4.29464 9.60084 4.34308 9.83529 4.46254C10.2022 4.64949 10.5005 4.9478 10.6874 5.3147C10.8069 5.54915 10.8553 5.8002 10.878 6.07815C10.9 6.3467 10.9 6.6771 10.9 7.08115V7.1V8.3V8.31885C10.9 8.7229 10.9 9.0533 10.878 9.32185C10.8553 9.5998 10.8069 9.85085 10.6874 10.0853C10.5005 10.4522 10.2022 10.7505 9.83529 10.9374C9.60084 11.0569 9.3498 11.1053 9.07185 11.128C8.8033 11.15 8.47289 11.15 8.06884 11.15H8.05H3.85H3.83115C3.42712 11.15 3.0967 11.15 2.82816 11.128C2.5502 11.1053 2.29916 11.0569 2.06472 10.9374C1.6978 10.7505 1.39949 10.4522 1.21254 10.0853C1.09308 9.85085 1.04464 9.5998 1.02193 9.32185C0.99999 9.0533 0.999995 8.7229 1 8.31885V8.3V7.1V7.08115C0.999995 6.6771 0.99999 6.3467 1.02193 6.07815C1.04464 5.8002 1.09308 5.54915 1.21254 5.3147C1.39949 4.9478 1.6978 4.64949 2.06472 4.46254C2.29916 4.34308 2.5502 4.29464 2.82816 4.27193C2.95464 4.2616 3.09484 4.25613 3.25 4.25324V3.2ZM7.75 3.2V4.25H4.15V3.2C4.15 2.20589 4.95589 1.4 5.95 1.4C6.9441 1.4 7.75 2.20589 7.75 3.2ZM2.90145 5.16895C2.67915 5.1871 2.55973 5.2204 2.47331 5.26445C2.27574 5.3651 2.11511 5.52575 2.01444 5.7233C1.97041 5.80975 1.93711 5.92915 1.91894 6.15145C1.90035 6.379 1.9 6.67255 1.9 7.1V8.3C1.9 8.72745 1.90035 9.021 1.91894 9.24855C1.93711 9.47085 1.97041 9.59025 2.01444 9.6767C2.11511 9.87425 2.27574 10.0349 2.47331 10.1355C2.55973 10.1796 2.67915 10.2129 2.90145 10.231C3.129 10.2497 3.42254 10.25 3.85 10.25H8.05C8.47745 10.25 8.77099 10.2497 8.99854 10.231C9.22084 10.2129 9.34025 10.1796 9.42669 10.1355C9.62424 10.0349 9.78489 9.87425 9.88554 9.6767C9.92959 9.59025 9.96289 9.47085 9.98104 9.24855C9.99965 9.021 10 8.72745 10 8.3V7.1C10 6.67255 9.99965 6.379 9.98104 6.15145C9.96289 5.92915 9.92959 5.80975 9.88554 5.7233C9.78489 5.52575 9.62424 5.3651 9.42669 5.26445C9.34025 5.2204 9.22084 5.1871 8.99854 5.16895C8.77099 5.15035 8.47745 5.15 8.05 5.15H3.85C3.42254 5.15 3.129 5.15035 2.90145 5.16895ZM6.45 8.0662C6.7489 7.8933 6.95 7.57015 6.95 7.2C6.95 6.6477 6.5023 6.2 5.95 6.2C5.3977 6.2 4.95 6.6477 4.95 7.2C4.95 7.57015 5.15109 7.8933 5.45 8.0662V8.95C5.45 9.22615 5.67385 9.45 5.95 9.45C6.22614 9.45 6.45 9.22615 6.45 8.95V8.0662Z" fill="#1E1E1E"/>
</svg>
