<svg width="16" height="16" viewBox="0 0 16 16" fill="none" xmlns="http://www.w3.org/2000/svg">
<path d="M7.69999 14.5C7.29999 14.5 6.99999 14.4 6.69999 14.1C5.39999 13 2.29999 10.1 2.29999 6.69999C2.29999 3.69999 4.69999 1.29999 7.69999 1.29999C10.7 1.29999 13.1 3.69999 13.1 6.69999C13.1 10.1 10.1 13 8.69999 14.1C8.39999 14.3 7.99999 14.5 7.69999 14.5ZM7.69999 2.69999C5.49999 2.69999 3.69999 4.49999 3.69999 6.69999C3.69999 9.49999 6.39999 12.1 7.59999 13.1C7.69999 13.2 7.79999 13.2 7.79999 13.1C8.99999 12.1 11.7 9.59999 11.7 6.69999C11.6 4.49999 9.89999 2.69999 7.69999 2.69999Z" fill="#1E1E1E"/>
<path d="M7.7 9.4C6.2 9.4 5 8.2 5 6.7C5 5.2 6.2 4 7.7 4C9.2 4 10.4 5.2 10.4 6.7C10.4 8.2 9.2 9.4 7.7 9.4ZM7.7 5.4C7 5.4 6.4 6 6.4 6.7C6.4 7.4 6.9 8 7.7 8C8.4 8 9 7.4 9 6.7C9 6 8.4 5.4 7.7 5.4Z" fill="#1E1E1E"/>
</svg>
