<svg width="12" height="12" viewBox="0 0 12 12" fill="none" xmlns="http://www.w3.org/2000/svg">
<path d="M5.80001 10.8C5.50001 10.8 5.10001 10.7 4.90001 10.5C3.70001 9.5 1.70001 7.4 1.70001 5C1.70001 2.8 3.50001 1 5.70001 1C7.90001 1 9.70001 2.8 9.70001 5C9.70001 7.4 7.70001 9.5 6.60001 10.5C6.40001 10.7 6.10001 10.8 5.80001 10.8ZM5.80001 2C4.20001 2 2.80001 3.3 2.80001 5C2.80001 7.1 4.70001 8.9 5.60001 9.6C5.70001 9.7 5.90001 9.7 6.00001 9.6C6.80001 8.9 8.70001 7.1 8.70001 5C8.70001 3.4 7.40001 2 5.80001 2Z" fill="#1E1E1E"/>
<path d="M5.79999 7C4.69999 7 3.79999 6.1 3.79999 5C3.79999 3.9 4.69999 3 5.79999 3C6.89999 3 7.79999 3.9 7.79999 5C7.79999 6.1 6.89999 7 5.79999 7ZM5.79999 4C5.29999 4 4.79999 4.4 4.79999 5C4.79999 5.6 5.19999 6 5.79999 6C6.39999 6 6.79999 5.6 6.79999 5C6.79999 4.4 6.29999 4 5.79999 4Z" fill="#1E1E1E"/>
</svg>
