<svg width="24" height="24" viewBox="0 0 24 24" fill="none" xmlns="http://www.w3.org/2000/svg">
<path d="M11.9 21.6C11.5 21.6 11.1 21.5 10.8 21.2C8.8 19.6 4 15.2 4 9.9C4 5.5 7.5 2 11.9 2C16.3 2 19.8 5.5 19.8 9.9C19.8 15.2 15.1 19.5 13 21.2C12.7 21.4 12.3 21.6 11.9 21.6ZM11.9 3.8C8.5 3.8 5.8 6.5 5.8 9.9C5.8 14.5 10.5 18.6 11.9 19.8C13.3 18.6 18 14.5 18 9.9C18 6.5 15.3 3.8 11.9 3.8Z" fill="#1E1E1E"/>
<path d="M11.9 13.8C9.7 13.8 8 12 8 9.9C8 7.8 9.7 6 11.9 6C14.1 6 15.8 7.7 15.8 9.9C15.8 12.1 14.1 13.8 11.9 13.8ZM11.9 7.8C10.7 7.8 9.8 8.7 9.8 9.9C9.8 11.1 10.7 12 11.9 12C13.1 12 14 11.1 14 9.9C14 8.7 13.1 7.8 11.9 7.8Z" fill="#1E1E1E"/>
</svg>
