<svg width="12" height="12" viewBox="0 0 12 12" fill="none" xmlns="http://www.w3.org/2000/svg">
<path d="M5.8 1C4.6 1 3.6375 1.4375 3.6375 1.4375L3.25 1.6L3.4375 1.975L4.075 3.2375C3.22188 3.74062 1 5.28125 1 7.8C1 8.98125 1.38281 9.87812 2.2125 10.375C3.04219 10.8719 4.20469 11 5.8 11C7.39531 11 8.55781 10.8719 9.3875 10.375C10.2172 9.87812 10.6 8.98125 10.6 7.8C10.6 6.15625 9.64062 4.925 8.7375 4.125C9.51562 4.44062 9.9 4.875 9.9 4.875L10.5 4.325C10.5 4.325 9.47969 3.24688 7.625 3.0375L8.1625 1.975L8.35 1.6L7.9625 1.4375C7.9625 1.4375 7 1 5.8 1ZM5.8 1.8C6.42969 1.8 6.90625 1.91719 7.2375 2.025L6.75 3H4.85L4.3625 2.025C4.69375 1.91719 5.17031 1.8 5.8 1.8ZM4.725 3.8H6.875C6.97344 3.85156 9.8 5.34219 9.8 7.8C9.8 8.82812 9.56094 9.33594 8.975 9.6875C8.38906 10.0391 7.34531 10.2 5.8 10.2C4.25469 10.2 3.21094 10.0391 2.625 9.6875C2.03906 9.33594 1.8 8.82812 1.8 7.8C1.8 5.34219 4.62656 3.85156 4.725 3.8Z" fill="#1E1E1E"/>
<path d="M5.1941 7.99897C5.28162 8.27206 5.6389 8.54418 5.92453 8.5669C6.24191 8.59213 6.5249 8.52781 6.73964 8.26358C6.80524 8.1827 6.89162 8.12666 7.00164 8.13282C7.12168 8.13975 7.21109 8.1983 7.26175 8.31038C7.31412 8.42612 7.30221 8.53859 7.21979 8.63392C6.59049 9.36284 5.51073 9.36169 4.91395 8.68438C4.75289 8.50142 4.61962 8.30017 4.53683 8.0683C4.51698 8.01303 4.48768 7.99512 4.43248 7.99782C4.35403 8.00186 4.27501 8.00109 4.19638 7.9982C4.00904 7.99146 3.87804 7.86108 3.88031 7.68718C3.88277 7.51058 4.01358 7.38887 4.20394 7.38656C4.26292 7.38579 4.32189 7.38637 4.38371 7.38637C4.38371 7.30414 4.38371 7.23481 4.38371 7.15854C4.29524 7.15277 4.20753 7.15354 4.12209 7.14006C3.98617 7.11868 3.88863 6.99986 3.8805 6.85908C3.87275 6.72543 3.95668 6.59235 4.08239 6.55576C4.13853 6.53939 4.20205 6.53265 4.25932 6.54112C4.4321 6.56655 4.52227 6.50973 4.60034 6.33352C4.80072 5.88057 5.12605 5.53873 5.61243 5.40835C6.23379 5.24196 6.768 5.41548 7.2092 5.88788C7.32432 6.01114 7.3179 6.1937 7.20164 6.31272C7.08879 6.42808 6.91695 6.43366 6.79162 6.32331C6.74399 6.28152 6.69654 6.23819 6.65628 6.18928C6.42395 5.90733 5.82169 5.8875 5.52264 6.1263C5.38521 6.23607 5.26971 6.36241 5.18087 6.53265C5.22434 6.53535 5.25421 6.53881 5.28408 6.53881C5.47311 6.53958 5.66215 6.53612 5.85099 6.54093C6.01356 6.54498 6.13435 6.67458 6.1387 6.83847C6.14267 6.996 6.02944 7.13466 5.86895 7.1414C5.61111 7.15238 5.3527 7.14776 5.09467 7.15238C5.06045 7.15296 4.99901 7.16394 4.99694 7.17761C4.98748 7.23904 4.99051 7.30375 4.99996 7.36576C5.00166 7.37674 5.05459 7.38541 5.08389 7.3856C5.33587 7.38733 5.58786 7.38502 5.83965 7.38752C5.97859 7.38887 6.07537 7.46186 6.12055 7.58916C6.1629 7.70875 6.13227 7.85146 6.02585 7.92483C5.96498 7.96701 5.88237 7.99127 5.80808 7.99551C5.63549 8.00552 5.46177 7.99878 5.28862 7.99878C5.25837 7.99897 5.22812 7.99897 5.1941 7.99897Z" fill="#1E1E1E"/>
</svg>
