<svg width="16" height="16" viewBox="0 0 16 16" fill="none" xmlns="http://www.w3.org/2000/svg">
<path d="M7.73333 1.33334C6.13333 1.33334 4.84999 1.91668 4.84999 1.91668L4.33333 2.13334L4.58333 2.63334L5.43333 4.31668C4.29583 4.98751 1.33333 7.04168 1.33333 10.4C1.33333 11.975 1.84374 13.1708 2.94999 13.8333C4.05625 14.4958 5.60625 14.6667 7.73333 14.6667C9.86041 14.6667 11.4104 14.4958 12.5167 13.8333C13.6229 13.1708 14.1333 11.975 14.1333 10.4C14.1333 8.20835 12.8542 6.56668 11.65 5.50001C12.6875 5.92084 13.2 6.50001 13.2 6.50001L14 5.76668C14 5.76668 12.6396 4.32918 10.1667 4.05001L10.8833 2.63334L11.1333 2.13334L10.6167 1.91668C10.6167 1.91668 9.33333 1.33334 7.73333 1.33334ZM7.73333 2.40001C8.57291 2.40001 9.20833 2.55626 9.64999 2.70001L9 4.00001H6.46666L5.81666 2.70001C6.25833 2.55626 6.89374 2.40001 7.73333 2.40001ZM6.29999 5.06668H9.16666C9.29791 5.13543 13.0667 7.12293 13.0667 10.4C13.0667 11.7708 12.7479 12.4479 11.9667 12.9167C11.1854 13.3854 9.79374 13.6 7.73333 13.6C5.67291 13.6 4.28124 13.3854 3.49999 12.9167C2.71875 12.4479 2.39999 11.7708 2.39999 10.4C2.39999 7.12293 6.16875 5.13543 6.29999 5.06668Z" fill="#1E1E1E"/>
<path d="M6.92546 10.6653C7.04216 11.0294 7.51853 11.3923 7.89937 11.4226C8.32255 11.4562 8.69986 11.3704 8.98619 11.0182C9.07365 10.9103 9.18883 10.8356 9.33552 10.8438C9.49557 10.853 9.61479 10.9311 9.68234 11.0805C9.75215 11.2349 9.73627 11.3848 9.62638 11.5119C8.78732 12.4838 7.34764 12.4823 6.55193 11.5792C6.33719 11.3353 6.1595 11.0669 6.0491 10.7578C6.02264 10.6841 5.98357 10.6602 5.90997 10.6638C5.80537 10.6692 5.70002 10.6682 5.59517 10.6643C5.34539 10.6553 5.17072 10.4815 5.17375 10.2496C5.17702 10.0142 5.35144 9.85187 5.60525 9.84879C5.68389 9.84776 5.76253 9.84853 5.84494 9.84853C5.84494 9.73889 5.84494 9.64645 5.84494 9.54477C5.72699 9.53706 5.61004 9.53809 5.49611 9.52012C5.31489 9.49161 5.18484 9.33318 5.174 9.14548C5.16367 8.96727 5.27557 8.78984 5.44318 8.74105C5.51804 8.71923 5.60273 8.71024 5.6791 8.72154C5.90947 8.75543 6.02969 8.67968 6.13379 8.44473C6.40096 7.8408 6.83473 7.38502 7.48324 7.21118C8.31171 6.98932 9.02399 7.22068 9.61227 7.85055C9.76576 8.01489 9.75719 8.25831 9.60219 8.417C9.45171 8.57081 9.22261 8.57826 9.0555 8.43112C8.99198 8.3754 8.92872 8.31763 8.87503 8.25241C8.56527 7.87649 7.76225 7.85004 7.36352 8.16844C7.18028 8.3148 7.02628 8.48325 6.90782 8.71024C6.96579 8.71384 7.00561 8.71846 7.04544 8.71846C7.29748 8.71949 7.54953 8.71486 7.80132 8.72128C8.01808 8.72667 8.17914 8.89949 8.18494 9.118C8.19023 9.32805 8.03925 9.51293 7.82527 9.52191C7.48148 9.53655 7.13693 9.53039 6.79289 9.53655C6.74727 9.53732 6.66535 9.55196 6.66258 9.57019C6.64998 9.6521 6.65401 9.73837 6.66661 9.82106C6.66888 9.83569 6.73945 9.84725 6.77852 9.84751C7.1145 9.84982 7.45047 9.84674 7.7862 9.85007C7.97145 9.85187 8.1005 9.94919 8.16074 10.1189C8.2172 10.2784 8.17637 10.4686 8.03446 10.5665C7.95331 10.6227 7.84316 10.6551 7.74411 10.6607C7.51399 10.6741 7.28236 10.6651 7.05149 10.6651C7.01116 10.6653 6.97083 10.6653 6.92546 10.6653Z" fill="#1E1E1E"/>
</svg>
