<svg width="24" height="24" viewBox="0 0 24 24" fill="none" xmlns="http://www.w3.org/2000/svg">
<path d="M11.6 2C9.2 2 7.275 2.875 7.275 2.875L6.5 3.2L6.875 3.95L8.15 6.475C6.44375 7.48125 2 10.5625 2 15.6C2 17.9625 2.76562 19.7562 4.425 20.75C6.08438 21.7438 8.40938 22 11.6 22C14.7906 22 17.1156 21.7438 18.775 20.75C20.4344 19.7562 21.2 17.9625 21.2 15.6C21.2 12.3125 19.2812 9.85 17.475 8.25C19.0312 8.88125 19.8 9.75 19.8 9.75L21 8.65C21 8.65 18.9594 6.49375 15.25 6.075L16.325 3.95L16.7 3.2L15.925 2.875C15.925 2.875 14 2 11.6 2ZM11.6 3.6C12.8594 3.6 13.8125 3.83438 14.475 4.05L13.5 6H9.7L8.725 4.05C9.3875 3.83438 10.3406 3.6 11.6 3.6ZM9.45 7.6H13.75C13.9469 7.70313 19.6 10.6844 19.6 15.6C19.6 17.6562 19.1219 18.6719 17.95 19.375C16.7781 20.0781 14.6906 20.4 11.6 20.4C8.50938 20.4 6.42187 20.0781 5.25 19.375C4.07813 18.6719 3.6 17.6562 3.6 15.6C3.6 10.6844 9.25313 7.70313 9.45 7.6Z" fill="#1E1E1E"/>
<path d="M10.3882 15.998C10.5632 16.5441 11.2778 17.0884 11.8491 17.1338C12.4838 17.1843 13.0498 17.0556 13.4793 16.5272C13.6105 16.3654 13.7832 16.2533 14.0033 16.2657C14.2434 16.2795 14.4222 16.3966 14.5235 16.6208C14.6282 16.8523 14.6044 17.0772 14.4396 17.2679C13.181 18.7257 11.0215 18.7234 9.8279 17.3688C9.50578 17.0029 9.23925 16.6004 9.07365 16.1366C9.03396 16.0261 8.97536 15.9903 8.86496 15.9957C8.70806 16.0038 8.55003 16.0022 8.39275 15.9964C8.01809 15.983 7.75608 15.7222 7.76062 15.3744C7.76554 15.0212 8.02716 14.7778 8.40787 14.7732C8.52583 14.7716 8.64379 14.7728 8.76742 14.7728C8.76742 14.6083 8.76742 14.4696 8.76742 14.3171C8.59048 14.3056 8.41506 14.3071 8.24417 14.2801C7.97234 14.2374 7.77726 13.9997 7.761 13.7182C7.7455 13.4509 7.91336 13.1847 8.16478 13.1116C8.27706 13.0788 8.40409 13.0653 8.51865 13.0823C8.8642 13.1331 9.04454 13.0195 9.20068 12.6671C9.60144 11.7612 10.2521 11.0775 11.2249 10.8167C12.4676 10.484 13.536 10.831 14.4184 11.7758C14.6486 12.0223 14.6358 12.3874 14.4033 12.6255C14.1776 12.8562 13.8339 12.8674 13.5832 12.6467C13.488 12.5631 13.3931 12.4764 13.3126 12.3786C12.8479 11.8147 11.6434 11.775 11.0453 12.2526C10.7704 12.4722 10.5394 12.7248 10.3617 13.0653C10.4487 13.0707 10.5084 13.0777 10.5682 13.0777C10.9462 13.0792 11.3243 13.0723 11.702 13.0819C12.0271 13.09 12.2687 13.3492 12.2774 13.677C12.2853 13.992 12.0589 14.2694 11.7379 14.2828C11.2222 14.3048 10.7054 14.2955 10.1893 14.3048C10.1209 14.3059 9.99803 14.3279 9.99387 14.3552C9.97497 14.4781 9.98102 14.6075 9.99992 14.7316C10.0033 14.7535 10.1092 14.7708 10.1678 14.7712C10.6717 14.7747 11.1757 14.7701 11.6793 14.7751C11.9572 14.7778 12.1507 14.9238 12.2411 15.1783C12.3258 15.4175 12.2645 15.7029 12.0517 15.8497C11.93 15.934 11.7647 15.9826 11.6162 15.991C11.271 16.0111 10.9235 15.9976 10.5772 15.9976C10.5167 15.998 10.4562 15.998 10.3882 15.998Z" fill="#1E1E1E"/>
</svg>
