<svg width="12" height="12" viewBox="0 0 12 12" fill="none" xmlns="http://www.w3.org/2000/svg">
<path d="M5.80442 0.5C5.93667 0.5 6.06864 0.5 6.2009 0.5C6.42462 0.527214 6.64919 0.547266 6.87178 0.5825C9.92463 1.06805 11.9464 3.91974 11.4154 6.98828C11.0373 9.17253 9.22599 11.0059 7.06691 11.384C6.78031 11.4341 6.48975 11.4619 6.20118 11.5C6.06893 11.5 5.93696 11.5 5.80471 11.5C5.55295 11.4693 5.2992 11.4502 5.04999 11.406C2.08069 10.881 0.0442345 8.06307 0.587969 5.01143C0.976796 2.82977 2.77792 0.995573 4.93869 0.616015C5.22529 0.565599 5.51585 0.538099 5.80442 0.5ZM6.85054 5.99943C6.80807 6.03982 6.78088 6.06589 6.75341 6.09167C6.13576 6.66716 5.51783 7.24237 4.90103 7.81872C4.7212 7.98687 4.70251 8.2149 4.85175 8.3756C5.001 8.53659 5.21141 8.53372 5.39039 8.36701C6.12245 7.68466 6.85451 7.00232 7.586 6.3194C7.81171 6.10857 7.81369 5.89315 7.59053 5.6849C6.85932 5.00198 6.12698 4.31992 5.39492 3.63786C5.21368 3.46885 5.00525 3.46227 4.856 3.61982C4.70421 3.77995 4.71837 4.01026 4.8965 4.17727C5.28051 4.53706 5.66736 4.89427 6.0525 5.2532C6.31559 5.49784 6.57754 5.74391 6.85054 5.99943Z" fill="#1E1E1E"/>
</svg>
