<svg width="12" height="12" viewBox="0 0 12 12" fill="none" xmlns="http://www.w3.org/2000/svg">
<path d="M5.95 11.4C2.95 11.4 0.5 8.95 0.5 5.95C0.5 2.95 2.95 0.5 5.95 0.5C8.95 0.5 11.4 2.95 11.4 5.95C11.4 8.95 8.95 11.4 5.95 11.4ZM5.95 1.4C3.45 1.4 1.4 3.45 1.4 5.95C1.4 8.45 3.45 10.5 5.95 10.5C8.45 10.5 10.5 8.45 10.5 5.95C10.5 3.45 8.45 1.4 5.95 1.4Z" fill="#1E1E1E"/>
<path d="M6.84543 5.99949C6.57287 5.74336 6.31135 5.4967 6.04869 5.25119C5.66418 4.8914 5.27796 4.53361 4.89458 4.17267C4.71674 4.00555 4.70261 3.7744 4.85415 3.61388C5.00315 3.45595 5.21124 3.46256 5.39219 3.63197C6.12305 4.31567 6.85391 4.99936 7.58421 5.68392C7.807 5.89268 7.80502 6.1089 7.57968 6.31995C6.84939 7.00451 6.11853 7.68849 5.38766 8.37247C5.20898 8.53959 4.99891 8.54246 4.84991 8.38108C4.70119 8.21999 4.71957 7.99114 4.8991 7.82287C5.51489 7.24513 6.13181 6.66854 6.74845 6.09167C6.77588 6.06611 6.80302 6.03998 6.84543 5.99949Z" fill="#1E1E1E"/>
</svg>
