<svg width="24" height="24" viewBox="0 0 24 24" fill="none" xmlns="http://www.w3.org/2000/svg">
<path d="M11.9 22.8C5.9 22.8 1 17.9 1 11.9C1 5.9 5.9 1 11.9 1C17.9 1 22.8 5.9 22.8 11.9C22.8 17.9 17.9 22.8 11.9 22.8ZM11.9 2.8C6.9 2.8 2.8 6.9 2.8 11.9C2.8 16.9 6.9 21 11.9 21C16.9 21 21 16.9 21 11.9C21 6.9 16.9 2.8 11.9 2.8Z" fill="#1E1E1E"/>
<path d="M13.6909 11.999C13.1457 11.4867 12.6227 10.9934 12.0974 10.5024C11.3284 9.78279 10.5559 9.06723 9.78916 8.34534C9.43349 8.0111 9.40521 7.5488 9.7083 7.22777C10.0063 6.91191 10.4225 6.92512 10.7844 7.26395C12.2461 8.63134 13.7078 9.99873 15.1684 11.3678C15.614 11.7854 15.61 12.2178 15.1594 12.6399C13.6988 14.009 12.2371 15.377 10.7753 16.7449C10.418 17.0792 9.99782 17.0849 9.69982 16.7622C9.40238 16.44 9.43914 15.9823 9.79821 15.6457C11.0298 14.4903 12.2636 13.3371 13.4969 12.1833C13.5518 12.1322 13.606 12.08 13.6909 11.999Z" fill="#1E1E1E"/>
</svg>
