<svg width="16" height="16" viewBox="0 0 16 16" fill="none" xmlns="http://www.w3.org/2000/svg">
<path d="M7.73923 0.666656C7.91557 0.666656 8.09153 0.666656 8.26787 0.666656C8.56616 0.702941 8.8656 0.729678 9.16238 0.776657C13.2328 1.42405 15.9285 5.22631 15.2205 9.3177C14.7164 12.23 12.3013 14.6745 9.42255 15.1786C9.04042 15.2455 8.65301 15.2825 8.26824 15.3333C8.09191 15.3333 7.91595 15.3333 7.73961 15.3333C7.40393 15.2925 7.06561 15.2669 6.73333 15.208C2.77426 14.5079 0.0589845 10.7508 0.783964 6.6819C1.3024 3.77301 3.70389 1.32742 6.58493 0.821344C6.96706 0.754121 7.35447 0.717455 7.73923 0.666656ZM9.13406 7.99923C9.07743 8.05308 9.04118 8.08784 9.00455 8.12221C8.18102 8.88954 7.35711 9.65648 6.53471 10.425C6.29494 10.6492 6.27002 10.9532 6.46901 11.1675C6.668 11.3821 6.94855 11.3783 7.18719 11.156C8.16327 10.2462 9.13935 9.33641 10.1147 8.42586C10.4156 8.14475 10.4183 7.85752 10.1207 7.57985C9.14577 6.6693 8.16931 5.75989 7.19323 4.85048C6.95157 4.62513 6.67367 4.61634 6.47467 4.82641C6.27228 5.03992 6.29116 5.347 6.52867 5.56968C7.04069 6.0494 7.55648 6.52568 8.07001 7.00426C8.42079 7.33044 8.77006 7.65853 9.13406 7.99923Z" fill="#1E1E1E"/>
</svg>
