<svg width="16" height="16" viewBox="0 0 16 16" fill="none" xmlns="http://www.w3.org/2000/svg">
<path d="M7.93334 15.2C3.93334 15.2 0.666672 11.9333 0.666672 7.93332C0.666672 3.93332 3.93334 0.666656 7.93334 0.666656C11.9333 0.666656 15.2 3.93332 15.2 7.93332C15.2 11.9333 11.9333 15.2 7.93334 15.2ZM7.93334 1.86666C4.6 1.86666 1.86667 4.59999 1.86667 7.93332C1.86667 11.2667 4.6 14 7.93334 14C11.2667 14 14 11.2667 14 7.93332C14 4.59999 11.2667 1.86666 7.93334 1.86666Z" fill="#1E1E1E"/>
<path d="M9.12725 7.99931C8.76384 7.6578 8.41514 7.32892 8.06493 7.00158C7.55224 6.52185 7.0373 6.04481 6.52612 5.56355C6.289 5.34073 6.27015 5.03252 6.47221 4.8185C6.67088 4.60793 6.94833 4.61673 7.18959 4.84262C8.16407 5.75422 9.13856 6.66581 10.1123 7.57855C10.4093 7.85689 10.4067 8.14519 10.1063 8.42659C9.13252 9.33933 8.15804 10.2513 7.18356 11.1633C6.94531 11.3861 6.66522 11.3899 6.46656 11.1748C6.26827 10.96 6.29277 10.6548 6.53215 10.4305C7.3532 9.66017 8.17576 8.89138 8.99794 8.12221C9.03451 8.08814 9.0707 8.0533 9.12725 7.99931Z" fill="#1E1E1E"/>
</svg>
