<svg width="24" height="24" viewBox="0 0 24 24" fill="none" xmlns="http://www.w3.org/2000/svg">
<path d="M11.6088 1C11.8733 1 12.1373 1 12.4018 1C12.8492 1.05443 13.2984 1.09453 13.7436 1.165C19.8493 2.13609 23.8927 7.83948 22.8307 13.9766C22.0746 18.3451 18.452 22.0117 14.1338 22.768C13.5606 22.8682 12.9795 22.9238 12.4024 23C12.1379 23 11.8739 23 11.6094 23C11.1059 22.9387 10.5984 22.9003 10.1 22.8121C4.16138 21.7619 0.088469 16.1261 1.17594 10.0229C1.95359 5.65953 5.55583 1.99115 9.87739 1.23203C10.4506 1.1312 11.0317 1.0762 11.6088 1ZM13.7011 11.9989C13.6161 12.0796 13.5618 12.1318 13.5068 12.1833C12.2715 13.3343 11.0357 14.4847 9.80206 15.6374C9.4424 15.9737 9.40502 16.4298 9.70351 16.7512C10.002 17.0732 10.4228 17.0674 10.7808 16.734C12.2449 15.3693 13.709 14.0046 15.172 12.6388C15.6234 12.2171 15.6274 11.7863 15.1811 11.3698C13.7186 10.004 12.254 8.63984 10.7898 7.27573C10.4274 6.93771 10.0105 6.92453 9.712 7.23964C9.40842 7.5599 9.43674 8.02052 9.793 8.35453C10.561 9.07411 11.3347 9.78854 12.105 10.5064C12.6312 10.9957 13.1551 11.4878 13.7011 11.9989Z" fill="#1E1E1E"/>
</svg>
