<svg width="12" height="12" viewBox="0 0 12 12" fill="none" xmlns="http://www.w3.org/2000/svg">
<path fill-rule="evenodd" clip-rule="evenodd" d="M3.03 1.6C2.2413 1.6 1.6 2.2413 1.6 3.03C1.6 7.09341 4.90604 10.4 8.97 10.4C9.75815 10.4 10.4 9.75871 10.4 8.97001C10.4 8.90896 10.3961 8.84901 10.3884 8.78961L7.84745 8.20661C7.79685 8.30341 7.7413 8.40846 7.6907 8.50636C7.4399 8.98486 7.2584 9.33246 6.7953 9.14601C4.97699 8.50801 3.49255 7.02301 2.8463 5.1827C2.64995 4.75095 3.02395 4.55515 3.49805 4.30765C3.5943 4.25705 3.69825 4.2026 3.7934 4.1531L3.2104 1.61155C3.14935 1.60385 3.08995 1.6 3.03 1.6ZM8.97 11.5C4.2994 11.5 0.5 7.70061 0.5 3.03C0.5 1.63465 1.63465 0.5 3.03 0.5C3.173 0.5 3.31435 0.5121 3.4513 0.53575C3.58495 0.5572 3.71915 0.5913 3.85005 0.6364C4.0288 0.69855 4.16355 0.8487 4.2059 1.0335L4.95884 4.3137C5.00064 4.4941 4.94839 4.6833 4.8197 4.8175C4.7449 4.8956 4.74325 4.89725 4.06125 5.2542C4.61345 6.44991 5.57319 7.40636 6.7447 7.93986C7.1022 7.25731 7.1044 7.25511 7.1825 7.18031C7.3167 7.05161 7.507 7.00156 7.6863 7.04116L10.967 7.79411C11.1513 7.83646 11.3014 7.97066 11.3631 8.14941C11.4081 8.27921 11.4423 8.41341 11.4648 8.55146C11.4879 8.68731 11.5 8.82811 11.5 8.97001C11.5 10.3654 10.3648 11.5 8.97 11.5Z" fill="#1E1E1E"/>
</svg>
