<svg width="24" height="24" viewBox="0 0 24 24" fill="none" xmlns="http://www.w3.org/2000/svg">
<path fill-rule="evenodd" clip-rule="evenodd" d="M7.14 4.8C5.8494 4.8 4.8 5.8494 4.8 7.14C4.8 13.7892 10.2099 19.2 16.86 19.2C18.1497 19.2 19.2 18.1506 19.2 16.86C19.2 16.7601 19.1937 16.662 19.1811 16.5648L15.0231 15.6108C14.9403 15.7692 14.8494 15.9411 14.7666 16.1013C14.3562 16.8843 14.0592 17.4531 13.3014 17.148C10.326 16.104 7.8969 13.674 6.8394 10.6626C6.5181 9.95611 7.1301 9.63571 7.90591 9.23071C8.06341 9.14791 8.23351 9.05881 8.38921 8.97781L7.4352 4.8189C7.3353 4.8063 7.2381 4.8 7.14 4.8ZM16.86 21C9.21721 21 3 14.7828 3 7.14C3 4.8567 4.8567 3 7.14 3C7.374 3 7.6053 3.0198 7.82941 3.0585C8.04811 3.0936 8.2677 3.1494 8.48191 3.2232C8.77441 3.3249 8.99491 3.5706 9.06421 3.873L10.2963 9.24061C10.3647 9.53581 10.2792 9.84541 10.0686 10.065C9.94621 10.1928 9.94351 10.1955 8.82751 10.7796C9.73111 12.7362 11.3016 14.3013 13.2186 15.1743C13.8036 14.0574 13.8072 14.0538 13.935 13.9314C14.1546 13.7208 14.466 13.6389 14.7594 13.7037L20.1279 14.9358C20.4294 15.0051 20.6751 15.2247 20.7759 15.5172C20.8497 15.7296 20.9055 15.9492 20.9424 16.1751C20.9802 16.3974 21 16.6278 21 16.86C21 19.1433 19.1424 21 16.86 21Z" fill="#1E1E1E"/>
</svg>
