<svg width="16" height="16" viewBox="0 0 16 16" fill="none" xmlns="http://www.w3.org/2000/svg">
<path fill-rule="evenodd" clip-rule="evenodd" d="M4.22 2.4C3.2162 2.4 2.4 3.2162 2.4 4.22C2.4 9.39161 6.60769 13.6 11.78 13.6C12.7831 13.6 13.6 12.7838 13.6 11.78C13.6 11.7023 13.5951 11.626 13.5853 11.5504L10.3513 10.8084C10.2869 10.9316 10.2162 11.0653 10.1518 11.1899C9.83259 11.7989 9.6016 12.2413 9.01219 12.004C6.69799 11.192 4.8087 9.30201 3.9862 6.95981C3.7363 6.41031 4.2123 6.16111 4.8157 5.84611C4.9382 5.78171 5.0705 5.71241 5.1916 5.64941L4.4496 2.4147C4.3719 2.4049 4.2963 2.4 4.22 2.4ZM11.78 15C5.83561 15 1 10.1644 1 4.22C1 2.4441 2.4441 1 4.22 1C4.402 1 4.5819 1.0154 4.7562 1.0455C4.9263 1.0728 5.0971 1.1162 5.2637 1.1736C5.4912 1.2527 5.6627 1.4438 5.71661 1.679L6.67489 5.85381C6.72809 6.08341 6.66159 6.32421 6.49781 6.49501C6.40261 6.59441 6.40051 6.59651 5.5325 7.05081C6.23531 8.57261 7.45679 9.78991 8.94779 10.4689C9.40279 9.60021 9.40559 9.59741 9.505 9.50221C9.6758 9.33841 9.918 9.27471 10.1462 9.32511L14.3217 10.2834C14.5562 10.3373 14.7473 10.5081 14.8257 10.7356C14.8831 10.9008 14.9265 11.0716 14.9552 11.2473C14.9846 11.4202 15 11.5994 15 11.78C15 13.5559 13.5552 15 11.78 15Z" fill="#1E1E1E"/>
</svg>
