<svg width="24" height="24" viewBox="0 0 24 24" fill="none" xmlns="http://www.w3.org/2000/svg">
<path d="M12.3912 23C12.1267 23 11.8627 23 11.5982 23C11.1508 22.9456 10.7016 22.9055 10.2564 22.835C4.15075 21.8639 0.107288 16.1605 1.16927 10.0234C1.9254 5.65495 5.54803 1.98828 9.86619 1.23203C10.4394 1.13177 11.0205 1.0762 11.5976 1C11.8621 1 12.1261 1 12.3906 1C12.8941 1.0613 13.4016 1.09969 13.9 1.18792C19.8386 2.23808 23.9115 7.87386 22.8241 13.9771C22.0464 18.3405 18.4442 22.0089 14.1226 22.768C13.5494 22.8688 12.9683 22.9238 12.3912 23ZM10.2989 12.0011C10.3839 11.9204 10.4382 11.8682 10.4932 11.8167C11.7285 10.6657 12.9643 9.51526 14.1979 8.36255C14.5576 8.02625 14.595 7.57021 14.2965 7.2488C13.998 6.92682 13.5772 6.93255 13.2192 7.26599C11.7551 8.63068 10.291 9.99536 8.828 11.3612C8.37658 11.7829 8.37262 12.2137 8.81893 12.6302C10.2814 13.996 11.746 15.3602 13.2102 16.7243C13.5726 17.0623 13.9895 17.0755 14.288 16.7604C14.5916 16.4401 14.5633 15.9795 14.207 15.6455C13.439 14.9259 12.6653 14.2115 11.895 13.4936C11.3688 13.0043 10.8449 12.5122 10.2989 12.0011Z" fill="#1E1E1E"/>
</svg>
