<svg width="16" height="16" viewBox="0 0 16 16" fill="none" xmlns="http://www.w3.org/2000/svg">
<path d="M7.93335 0.666679C11.9333 0.666679 15.2 3.93335 15.2 7.93335C15.2 11.9333 11.9333 15.2 7.93335 15.2C3.93335 15.2 0.666679 11.9333 0.666679 7.93335C0.666679 3.93335 3.93335 0.666679 7.93335 0.666679ZM7.93335 14C11.2667 14 14 11.2667 14 7.93335C14 4.60001 11.2667 1.86668 7.93335 1.86668C4.60001 1.86668 1.86668 4.60001 1.86668 7.93335C1.86668 11.2667 4.60001 14 7.93335 14Z" fill="#1E1E1E"/>
<path d="M6.73945 7.86735C7.10286 8.20887 7.45156 8.53774 7.80177 8.86509C8.31445 9.34482 8.8294 9.82186 9.34058 10.3031C9.5777 10.5259 9.59655 10.8341 9.39449 11.0482C9.19582 11.2587 8.91837 11.2499 8.67711 11.024C7.70262 10.1125 6.72814 9.20086 5.75442 8.28812C5.45736 8.00978 5.46 7.72148 5.76045 7.44008C6.73418 6.52734 7.70866 5.61536 8.68314 4.70339C8.92138 4.48056 9.20148 4.47673 9.40014 4.6919C9.59843 4.90669 9.57393 5.21183 9.33455 5.43618C8.5135 6.2065 7.69094 6.97529 6.86875 7.74445C6.83219 7.77853 6.796 7.81337 6.73945 7.86735Z" fill="#1E1E1E"/>
</svg>
