<svg width="24" height="24" viewBox="0 0 24 24" fill="none" xmlns="http://www.w3.org/2000/svg">
<path d="M11.9 0.999989C17.9 0.999989 22.8 5.89999 22.8 11.9C22.8 17.9 17.9 22.8 11.9 22.8C5.89999 22.8 0.999989 17.9 0.999989 11.9C0.999989 5.89999 5.89999 0.999989 11.9 0.999989ZM11.9 21C16.9 21 21 16.9 21 11.9C21 6.89999 16.9 2.79999 11.9 2.79999C6.89999 2.79999 2.79999 6.89999 2.79999 11.9C2.79999 16.9 6.89999 21 11.9 21Z" fill="#1E1E1E"/>
<path d="M10.1091 11.801C10.6542 12.3133 11.1773 12.8066 11.7026 13.2976C12.4716 14.0172 13.2441 14.7328 14.0108 15.4546C14.3665 15.7889 14.3948 16.2512 14.0917 16.5722C13.7937 16.8881 13.3775 16.8749 13.0156 16.536C11.5539 15.1686 10.0922 13.8013 8.63158 12.4321C8.18599 12.0146 8.18995 11.5822 8.64063 11.1601C10.1012 9.79098 11.5629 8.42301 13.0247 7.05505C13.382 6.72081 13.8022 6.71507 14.1002 7.03782C14.3976 7.36 14.3608 7.81771 14.0018 8.15424C12.7702 9.30972 11.5364 10.4629 10.3031 11.6167C10.2482 11.6678 10.194 11.72 10.1091 11.801Z" fill="#1E1E1E"/>
</svg>
