<svg width="12" height="12" viewBox="0 0 12 12" fill="none" xmlns="http://www.w3.org/2000/svg">
<path d="M5.94999 0.499994C8.94999 0.499994 11.4 2.94999 11.4 5.94999C11.4 8.94999 8.94999 11.4 5.94999 11.4C2.94999 11.4 0.499994 8.94999 0.499994 5.94999C0.499994 2.94999 2.94999 0.499994 5.94999 0.499994ZM5.94999 10.5C8.44999 10.5 10.5 8.44999 10.5 5.94999C10.5 3.44999 8.44999 1.39999 5.94999 1.39999C3.44999 1.39999 1.39999 3.44999 1.39999 5.94999C1.39999 8.44999 3.44999 10.5 5.94999 10.5Z" fill="#1E1E1E"/>
<path d="M5.05457 5.9005C5.32712 6.15663 5.58865 6.40329 5.8513 6.6488C6.23582 7.0086 6.62203 7.36638 7.00541 7.72732C7.18325 7.89444 7.19739 8.12559 7.04584 8.28611C6.89684 8.44404 6.68875 8.43744 6.50781 8.26802C5.77695 7.58432 5.04608 6.90063 4.31579 6.21607C4.093 6.00732 4.09498 5.7911 4.32031 5.58004C5.05061 4.89549 5.78147 4.21151 6.51233 3.52752C6.69102 3.3604 6.90109 3.35753 7.05009 3.51891C7.1988 3.68 7.18042 3.90885 7.00089 4.07712C6.3851 4.65486 5.76818 5.23145 5.15154 5.80833C5.12412 5.83388 5.09698 5.86001 5.05457 5.9005Z" fill="#1E1E1E"/>
</svg>
