<svg width="12" height="12" viewBox="0 0 12 12" fill="none" xmlns="http://www.w3.org/2000/svg">
<path d="M6.19558 11.5C6.06333 11.5 5.93136 11.5 5.7991 11.5C5.57538 11.4728 5.35081 11.4527 5.12822 11.4175C2.07537 10.932 0.0536442 8.08026 0.584635 5.01172C0.9627 2.82747 2.77402 0.994141 4.93309 0.616015C5.21969 0.565886 5.51025 0.538099 5.79882 0.5C5.93107 0.5 6.06304 0.5 6.19529 0.5C6.44705 0.530651 6.7008 0.549846 6.95001 0.59396C9.91931 1.11904 11.9558 3.93693 11.412 6.98857C11.0232 9.17023 9.22208 11.0044 7.06131 11.384C6.77471 11.4344 6.48415 11.4619 6.19558 11.5ZM5.14946 6.00057C5.19193 5.96018 5.21912 5.93411 5.24659 5.90833C5.86424 5.33284 6.48217 4.75763 7.09897 4.18128C7.2788 4.01313 7.29749 3.7851 7.14825 3.6244C6.999 3.46341 6.78859 3.46628 6.60961 3.63299C5.87755 4.31534 5.14549 4.99768 4.414 5.6806C4.18829 5.89143 4.18631 6.10685 4.40947 6.3151C5.14068 6.99802 5.87302 7.68008 6.60508 8.36214C6.78632 8.53115 6.99475 8.53773 7.144 8.38018C7.29579 8.22005 7.28163 7.98974 7.1035 7.82273C6.71949 7.46294 6.33264 7.10573 5.9475 6.7468C5.68441 6.50216 5.42246 6.25609 5.14946 6.00057Z" fill="#1E1E1E"/>
</svg>
