<svg width="16" height="16" viewBox="0 0 16 16" fill="none" xmlns="http://www.w3.org/2000/svg">
<path d="M8.26078 15.3333C8.08444 15.3333 7.90849 15.3333 7.73215 15.3333C7.43385 15.2971 7.13442 15.2703 6.83763 15.2233C2.76717 14.5759 0.0715351 10.7737 0.779523 6.6823C1.28361 3.76997 3.6987 1.32553 6.57747 0.821363C6.95959 0.754523 7.347 0.717475 7.73177 0.666677C7.90811 0.666677 8.08407 0.666677 8.2604 0.666677C8.59608 0.707544 8.93441 0.733137 9.26669 0.791956C13.2258 1.49206 15.941 5.24925 15.2161 9.3181C14.6976 12.227 12.2961 14.6726 9.41508 15.1787C9.03296 15.2459 8.64555 15.2825 8.26078 15.3333ZM6.86595 8.00077C6.92259 7.94692 6.95884 7.91216 6.99546 7.87779C7.819 7.11046 8.64291 6.34352 9.4653 5.57504C9.70508 5.35084 9.73 5.04682 9.531 4.83254C9.33201 4.61789 9.05146 4.62171 8.81282 4.844C7.83674 5.75379 6.86067 6.66359 5.88534 7.57414C5.5844 7.85525 5.58175 8.14248 5.8793 8.42015C6.85424 9.3307 7.8307 10.2401 8.80678 11.1495C9.04844 11.3749 9.32635 11.3837 9.52534 11.1736C9.72773 10.9601 9.70885 10.653 9.47134 10.4303C8.95933 9.9506 8.44354 9.47432 7.93001 8.99574C7.57922 8.66956 7.22995 8.34147 6.86595 8.00077Z" fill="#1E1E1E"/>
</svg>
