<svg width="12" height="12" viewBox="0 0 12 12" fill="none" xmlns="http://www.w3.org/2000/svg">
<path fill-rule="evenodd" clip-rule="evenodd" d="M6 0.5C2.964 0.5 0.5 2.964 0.5 6C0.5 9.036 2.964 11.5 6 11.5C9.036 11.5 11.5 9.036 11.5 6C11.5 2.964 9.036 0.5 6 0.5ZM5.45 9.85V8.75H6.55V9.85H5.45ZM7.1935 6.0935L7.6885 5.5875C8.002 5.274 8.2 4.834 8.2 4.35C8.2 3.1345 7.2155 2.15 6 2.15C4.7845 2.15 3.8 3.1345 3.8 4.35H4.9C4.9 3.745 5.395 3.25 6 3.25C6.605 3.25 7.1 3.745 7.1 4.35C7.1 4.6525 6.979 4.9275 6.7755 5.1255L6.0935 5.8185C5.6975 6.22 5.45 6.77 5.45 7.375V7.65H6.55C6.55 6.825 6.7975 6.495 7.1935 6.0935Z" fill="#1E1E1E"/>
</svg>
