<svg width="24" height="24" viewBox="0 0 24 24" fill="none" xmlns="http://www.w3.org/2000/svg">
<path fill-rule="evenodd" clip-rule="evenodd" d="M12 1C5.928 1 1 5.928 1 12C1 18.072 5.928 23 12 23C18.072 23 23 18.072 23 12C23 5.928 18.072 1 12 1ZM10.9 19.7V17.5H13.1V19.7H10.9ZM14.387 12.187L15.377 11.175C16.004 10.548 16.4 9.668 16.4 8.7C16.4 6.269 14.431 4.3 12 4.3C9.569 4.3 7.6 6.269 7.6 8.7H9.8C9.8 7.49 10.79 6.5 12 6.5C13.21 6.5 14.2 7.49 14.2 8.7C14.2 9.305 13.958 9.855 13.551 10.251L12.187 11.637C11.395 12.44 10.9 13.54 10.9 14.75V15.3H13.1C13.1 13.65 13.595 12.99 14.387 12.187Z" fill="#1E1E1E"/>
</svg>
