<svg width="16" height="16" viewBox="0 0 16 16" fill="none" xmlns="http://www.w3.org/2000/svg">
<path fill-rule="evenodd" clip-rule="evenodd" d="M8 0.666672C3.952 0.666672 0.666672 3.952 0.666672 8C0.666672 12.048 3.952 15.3333 8 15.3333C12.048 15.3333 15.3333 12.048 15.3333 8C15.3333 3.952 12.048 0.666672 8 0.666672ZM7.26667 13.1333V11.6667H8.73334V13.1333H7.26667ZM9.59134 8.12467L10.2513 7.45C10.6693 7.032 10.9333 6.44534 10.9333 5.8C10.9333 4.17934 9.62067 2.86667 8 2.86667C6.37934 2.86667 5.06667 4.17934 5.06667 5.8H6.53334C6.53334 4.99334 7.19334 4.33334 8 4.33334C8.80667 4.33334 9.46667 4.99334 9.46667 5.8C9.46667 6.20334 9.30534 6.57 9.034 6.834L8.12467 7.758C7.59667 8.29334 7.26667 9.02667 7.26667 9.83334V10.2H8.73334C8.73334 9.1 9.06334 8.66 9.59134 8.12467Z" fill="#1E1E1E"/>
</svg>
