<svg width="12" height="12" viewBox="0 0 12 12" fill="none" xmlns="http://www.w3.org/2000/svg">
<path fill-rule="evenodd" clip-rule="evenodd" d="M0.5 6C0.5 2.964 2.964 0.5 6 0.5C9.036 0.5 11.5 2.964 11.5 6C11.5 9.036 9.036 11.5 6 11.5C2.964 11.5 0.5 9.036 0.5 6ZM6.55 8.2V9.3H5.45V8.2H6.55ZM6 10.4C3.5745 10.4 1.6 8.4255 1.6 6C1.6 3.5745 3.5745 1.6 6 1.6C8.4255 1.6 10.4 3.5745 10.4 6C10.4 8.4255 8.4255 10.4 6 10.4ZM3.8 4.9C3.8 3.6845 4.7845 2.7 6 2.7C7.2155 2.7 8.2 3.6845 8.2 4.9C8.2 5.6056 7.76549 5.98533 7.34242 6.35505C6.94106 6.7058 6.55 7.04754 6.55 7.65H5.45C5.45 6.6483 5.96817 6.25112 6.42374 5.90192C6.78113 5.62798 7.1 5.38357 7.1 4.9C7.1 4.295 6.605 3.8 6 3.8C5.395 3.8 4.9 4.295 4.9 4.9H3.8Z" fill="#1E1E1E"/>
</svg>
