<svg width="16" height="16" viewBox="0 0 16 16" fill="none" xmlns="http://www.w3.org/2000/svg">
<path fill-rule="evenodd" clip-rule="evenodd" d="M0.666672 8C0.666672 3.952 3.952 0.666672 8 0.666672C12.048 0.666672 15.3333 3.952 15.3333 8C15.3333 12.048 12.048 15.3333 8 15.3333C3.952 15.3333 0.666672 12.048 0.666672 8ZM8.73334 10.9333V12.4H7.26667V10.9333H8.73334ZM8 13.8667C4.76601 13.8667 2.13334 11.234 2.13334 8C2.13334 4.76601 4.76601 2.13334 8 2.13334C11.234 2.13334 13.8667 4.76601 13.8667 8C13.8667 11.234 11.234 13.8667 8 13.8667ZM5.06667 6.53334C5.06667 4.91267 6.37934 3.6 8 3.6C9.62067 3.6 10.9333 4.91267 10.9333 6.53334C10.9333 7.47414 10.354 7.98044 9.7899 8.4734C9.25475 8.94106 8.73334 9.39673 8.73334 10.2H7.26667C7.26667 8.8644 7.95756 8.33484 8.565 7.86923C9.04151 7.50398 9.46667 7.1781 9.46667 6.53334C9.46667 5.72667 8.80667 5.06667 8 5.06667C7.19334 5.06667 6.53334 5.72667 6.53334 6.53334H5.06667Z" fill="#1E1E1E"/>
</svg>
