<svg width="24" height="24" viewBox="0 0 24 24" fill="none" xmlns="http://www.w3.org/2000/svg">
<path fill-rule="evenodd" clip-rule="evenodd" d="M1 12C1 5.928 5.928 1 12 1C18.072 1 23 5.928 23 12C23 18.072 18.072 23 12 23C5.928 23 1 18.072 1 12ZM13.1 16.4V18.6H10.9V16.4H13.1ZM12 20.8C7.149 20.8 3.2 16.851 3.2 12C3.2 7.149 7.149 3.2 12 3.2C16.851 3.2 20.8 7.149 20.8 12C20.8 16.851 16.851 20.8 12 20.8ZM7.6 9.8C7.6 7.369 9.569 5.4 12 5.4C14.431 5.4 16.4 7.369 16.4 9.8C16.4 11.2112 15.531 11.9707 14.6848 12.7101C13.8821 13.4116 13.1 14.0951 13.1 15.3H10.9C10.9 13.2966 11.9363 12.5022 12.8475 11.8038C13.5623 11.256 14.2 10.7671 14.2 9.8C14.2 8.59 13.21 7.6 12 7.6C10.79 7.6 9.8 8.59 9.8 9.8H7.6Z" fill="#1E1E1E"/>
</svg>
