<svg width="16" height="16" viewBox="0 0 16 16" fill="none" xmlns="http://www.w3.org/2000/svg">
<path d="M15 15.8C14.8 15.8 14.6 15.7 14.5 15.6L11.2 12.3C10 13.3 8.50001 13.8 7.00001 13.8C3.30001 13.8 0.200012 10.8 0.200012 7.00001C0.200012 3.30001 3.20001 0.200012 7.00001 0.200012C10.7 0.200012 13.8 3.20001 13.8 7.00001C13.8 8.60001 13.3 10 12.3 11.2L15.6 14.5C15.9 14.8 15.9 15.3 15.6 15.6C15.4 15.7 15.2 15.8 15 15.8ZM7.00001 1.80001C4.10001 1.80001 1.80001 4.10001 1.80001 7.00001C1.80001 9.90001 4.20001 12.2 7.00001 12.2C8.40001 12.2 9.70001 11.7 10.7 10.7C11.7 9.70001 12.2 8.40001 12.2 7.00001C12.2 4.10001 9.90001 1.80001 7.00001 1.80001Z" fill="#1E1E1E"/>
</svg>
