<svg width="24" height="24" viewBox="0 0 24 24" fill="none" xmlns="http://www.w3.org/2000/svg">
<path d="M10 18.4C5.40001 18.4 1.60001 14.6 1.60001 10C1.60001 5.40001 5.40001 1.60001 10 1.60001C14.6 1.60001 18.4 5.40001 18.4 10C18.4 14.6 14.6 18.4 10 18.4ZM10 3.40001C6.40001 3.40001 3.40001 6.40001 3.40001 10C3.40001 13.6 6.40001 16.6 10 16.6C13.6 16.6 16.6 13.6 16.6 10C16.6 6.40001 13.6 3.40001 10 3.40001Z" fill="#1E1E1E"/>
<path d="M21 21.9C20.8 21.9 20.5 21.8 20.4 21.6L14.9 16.1C14.5 15.7 14.5 15.2 14.9 14.8C15.3 14.4 15.8 14.4 16.2 14.8L21.7 20.3C22.1 20.7 22.1 21.2 21.7 21.6C21.5 21.8 21.2 21.9 21 21.9Z" fill="#1E1E1E"/>
</svg>
