<svg width="12" height="12" viewBox="0 0 12 12" fill="none" xmlns="http://www.w3.org/2000/svg">
<path d="M11.25 11.9C11.05 11.9 10.95 11.8 10.75 11.7L8.44999 9.30001C7.54999 10 6.44999 10.4 5.24999 10.4C2.44999 10.4 0.149994 8.10001 0.149994 5.20001C0.149994 2.30001 2.44999 0.100006 5.24999 0.100006C8.04999 0.100006 10.45 2.40001 10.45 5.20001C10.45 6.40001 10.05 7.50001 9.34999 8.40001L11.75 10.8C12.05 11.1 12.05 11.5 11.75 11.7C11.65 11.8 11.45 11.9 11.25 11.9ZM5.24999 1.40001C3.14999 1.40001 1.34999 3.10001 1.34999 5.30001C1.34999 7.50001 3.04999 9.10001 5.24999 9.10001C6.24999 9.10001 7.24999 8.70001 7.94999 8.00001C8.64999 7.30001 9.04999 6.30001 9.04999 5.30001C9.14999 3.10001 7.44999 1.40001 5.24999 1.40001Z" fill="#1E1E1E"/>
</svg>
