<svg width="16" height="16" viewBox="0 0 16 16" fill="none" xmlns="http://www.w3.org/2000/svg">
<path d="M11.9584 14.5012C11.846 14.4552 11.7256 14.4228 11.6224 14.3616C10.5699 13.738 9.51438 13.1188 8.47243 12.4781C8.13897 12.2729 7.86197 12.2702 7.52588 12.4777C6.4905 13.1161 5.43761 13.7253 4.39522 14.3519C4.16153 14.4924 3.93135 14.5384 3.70204 14.3747C3.47492 14.2128 3.43116 13.987 3.49243 13.7157C3.76812 12.4943 4.02631 11.2694 4.30638 10.0489C4.38384 9.71065 4.30638 9.46471 4.04469 9.2354C3.10208 8.40919 2.17303 7.56767 1.23611 6.73533C1.03699 6.55854 0.945096 6.35636 1.03393 6.09511C1.11926 5.84436 1.30393 5.73802 1.56256 5.71351C2.83907 5.59273 4.11471 5.46232 5.39122 5.34067C5.66954 5.31397 5.84021 5.17219 5.94786 4.91969C6.44673 3.7482 6.95392 2.58022 7.45149 1.4083C7.55958 1.15361 7.7285 0.998695 8.00944 1.00001C8.2847 1.00132 8.44486 1.16718 8.5477 1.40742C9.0282 2.53164 9.52489 3.6493 9.98525 4.7814C10.1454 5.17525 10.3927 5.33717 10.8023 5.3713C12.0219 5.47326 13.2393 5.60236 14.4576 5.71614C14.7114 5.73977 14.883 5.86055 14.9648 6.09686C15.0475 6.33492 14.9819 6.53928 14.7942 6.70689C13.8529 7.54579 12.9177 8.39169 11.9685 9.22183C11.702 9.45464 11.6105 9.6997 11.6911 10.0498C11.9781 11.2983 12.2481 12.5503 12.5186 13.8027C12.5969 14.1668 12.3335 14.4797 11.9584 14.5012Z" fill="#1E1E1E"/>
</svg>
