<svg width="24" height="24" viewBox="0 0 24 24" fill="none" xmlns="http://www.w3.org/2000/svg">
<path d="M12.1526 1.50051C12.5206 1.62214 12.7117 1.89504 12.8615 2.24103C13.6858 4.15237 14.528 6.05554 15.3554 7.96535C15.429 8.13502 15.5169 8.21628 15.7024 8.23263C17.2279 8.36959 18.7524 8.51371 20.2774 8.65732C20.9295 8.71864 21.5816 8.78355 22.2337 8.84487C22.6047 8.87962 22.8567 9.07382 22.9614 9.42594C23.0662 9.77806 22.9532 10.0734 22.6752 10.3157C21.0404 11.7425 19.4096 13.174 17.7717 14.5978C17.6424 14.7102 17.6194 14.8038 17.6572 14.9683C18.1248 17.0151 18.5822 19.0639 19.0427 21.1122C19.2006 21.8139 19.0478 22.1032 18.388 22.351C18.32 22.351 18.2515 22.351 18.1836 22.351C17.9659 22.2391 17.742 22.1374 17.5304 22.0142C15.7464 20.9737 13.9643 19.9307 12.1838 18.884C12.0519 18.8063 11.9533 18.8017 11.8153 18.8835C10.5796 19.6153 9.34029 20.3426 8.0969 21.0621C7.34054 21.4996 6.57549 21.9222 5.81453 22.351C5.72918 22.351 5.64435 22.351 5.559 22.351C4.9115 22.0393 4.80111 21.7899 4.96413 21.0713C5.42817 19.023 5.88914 16.9742 6.34143 14.9234C6.36136 14.8334 6.31383 14.6862 6.24484 14.6254C4.62326 13.1955 2.9976 11.7707 1.36529 10.353C1.07195 10.098 0.927318 9.80514 1.03617 9.42952C1.14503 9.05287 1.42151 8.874 1.81144 8.83823C3.36249 8.69616 4.91303 8.54539 6.46408 8.39821C7.08296 8.33944 7.70134 8.2776 8.32074 8.22752C8.48683 8.21423 8.56707 8.14319 8.6335 7.99039C9.46959 6.06525 10.319 4.14573 11.151 2.21854C11.2971 1.8792 11.4888 1.61754 11.847 1.5C11.9482 1.50051 12.0504 1.50051 12.1526 1.50051ZM20.4552 10.216C19.9605 10.1685 19.5394 10.1281 19.1178 10.0883C17.7369 9.95693 16.356 9.82201 14.9747 9.69833C14.5694 9.66205 14.3292 9.44894 14.1733 9.08865C13.6004 7.76297 13.0194 6.44036 12.4398 5.11673C12.3018 4.80192 12.1603 4.48916 12.0008 4.13193C11.9605 4.21779 11.9426 4.25305 11.9267 4.28934C11.2194 5.89967 10.5101 7.50898 9.80791 9.12186C9.65714 9.46785 9.41542 9.66 9.03724 9.69476C7.82553 9.80565 6.61382 9.92269 5.40262 10.0382C4.80418 10.0949 4.20624 10.1537 3.60831 10.2114C3.59144 10.2365 3.57458 10.262 3.55771 10.2871C3.60371 10.307 3.65839 10.3167 3.69467 10.3484C5.00859 11.4962 6.31792 12.6487 7.6349 13.7929C7.94307 14.0607 8.05601 14.3668 7.96249 14.768C7.70798 15.8606 7.46575 16.9568 7.21942 18.0515C7.07223 18.7046 6.92658 19.3583 6.76969 20.0579C6.89183 19.9899 6.97207 19.947 7.05077 19.901C8.50421 19.0506 9.96276 18.2089 11.407 17.3437C11.823 17.0943 12.1853 17.0989 12.5957 17.3463C13.6439 17.9784 14.7058 18.5881 15.7627 19.2065C16.2365 19.4835 16.7107 19.7595 17.2197 20.0559C17.2018 19.9526 17.1947 19.8949 17.1819 19.8382C16.8053 18.1624 16.4337 16.4856 16.0469 14.813C15.9472 14.3821 16.0509 14.0566 16.3877 13.7709C17.0567 13.2042 17.7108 12.6211 18.3706 12.0436C19.0473 11.4497 19.7244 10.8559 20.4552 10.216Z" fill="#1E1E1E"/>
</svg>
