<svg width="24" height="24" viewBox="0 0 24 24" fill="none" xmlns="http://www.w3.org/2000/svg">
<path d="M18.2204 22.2161C18.0437 22.1439 17.8546 22.093 17.6923 21.9968C16.0384 21.0168 14.3797 20.0438 12.7424 19.037C12.2184 18.7145 11.7831 18.7104 11.255 19.0363C9.62792 20.0396 7.97338 20.9969 6.33534 21.9816C5.96812 22.2024 5.60641 22.2746 5.24606 22.0174C4.88916 21.7629 4.8204 21.4081 4.91667 20.9817C5.3499 19.0624 5.75563 17.1377 6.19574 15.2197C6.31746 14.6882 6.19574 14.3017 5.78451 13.9413C4.30326 12.643 2.84333 11.3206 1.37102 10.0127C1.05813 9.73484 0.913722 9.41714 1.05332 9.0066C1.18742 8.61256 1.47761 8.44546 1.88403 8.40695C3.88997 8.21715 5.89454 8.01222 7.90048 7.82105C8.33784 7.7791 8.60604 7.55629 8.77521 7.15951C9.55915 5.3186 10.3562 3.4832 11.1381 1.64161C11.3079 1.24139 11.5733 0.99795 12.0148 1.00001C12.4474 1.00208 12.6991 1.2627 12.8607 1.64024C13.6157 3.40687 14.3963 5.16319 15.1197 6.9422C15.3714 7.56111 15.7599 7.81555 16.4036 7.86919C18.3201 8.02941 20.2332 8.23228 22.1477 8.41107C22.5466 8.44821 22.8161 8.638 22.9447 9.00935C23.0747 9.38344 22.9715 9.70459 22.6765 9.96797C21.1973 11.2862 19.7278 12.6155 18.2362 13.92C17.8174 14.2859 17.6737 14.671 17.8002 15.2211C18.2514 17.183 18.6756 19.1505 19.1006 21.1186C19.2237 21.6907 18.8097 22.1824 18.2204 22.2161Z" fill="#1E1E1E"/>
</svg>
