<svg width="16" height="16" viewBox="0 0 16 16" fill="none" xmlns="http://www.w3.org/2000/svg">
<path d="M8.09712 1.00033C8.33128 1.07773 8.45291 1.25139 8.5482 1.47156C9.07277 2.68787 9.60873 3.89898 10.1353 5.11431C10.1821 5.22228 10.238 5.27399 10.3561 5.2844C11.3268 5.37156 12.297 5.46327 13.2674 5.55466C13.6824 5.59368 14.0974 5.63498 14.5123 5.67401C14.7484 5.69612 14.9088 5.81971 14.9754 6.04378C15.0421 6.26785 14.9702 6.45583 14.7933 6.60998C13.753 7.51799 12.7152 8.42892 11.6729 9.33497C11.5906 9.40652 11.576 9.46603 11.6 9.57075C11.8976 10.8732 12.1887 12.177 12.4817 13.4805C12.5822 13.927 12.4849 14.1111 12.0651 14.2688C12.0218 14.2688 11.9783 14.2688 11.935 14.2688C11.7965 14.1976 11.654 14.1329 11.5194 14.0545C10.384 13.3924 9.25002 12.7286 8.11696 12.0626C8.03306 12.0131 7.97029 12.0102 7.88248 12.0622C7.09611 12.5279 6.30746 12.9907 5.51621 13.4486C5.03489 13.727 4.54804 13.996 4.06379 14.2688C4.00948 14.2688 3.95549 14.2688 3.90118 14.2688C3.48913 14.0704 3.41889 13.9117 3.52263 13.4545C3.81793 12.151 4.11127 10.8472 4.39909 9.54213C4.41177 9.4849 4.38153 9.39123 4.33762 9.35253C3.30571 8.44258 2.2712 7.53587 1.23246 6.63372C1.04578 6.47144 0.953748 6.28509 1.02302 6.04606C1.09229 5.80637 1.26823 5.69255 1.51637 5.66978C2.5034 5.57937 3.49011 5.48343 4.47714 5.38977C4.87098 5.35237 5.26449 5.31302 5.65865 5.28115C5.76435 5.27269 5.81541 5.22749 5.85768 5.13025C6.38974 3.90516 6.93025 2.68364 7.4597 1.45725C7.55271 1.24131 7.67467 1.0748 7.90264 1C7.96704 1.00033 8.03208 1.00033 8.09712 1.00033ZM13.3806 6.54657C13.0658 6.51632 12.7978 6.49063 12.5295 6.46526C11.6508 6.38168 10.772 6.29582 9.89297 6.21712C9.63507 6.19403 9.48222 6.05842 9.38303 5.82914C9.01846 4.98553 8.64869 4.14387 8.27989 3.30156C8.19209 3.10122 8.102 2.90219 8.00054 2.67486C7.97484 2.7295 7.96346 2.75194 7.95338 2.77503C7.50328 3.79979 7.05188 4.82389 6.60503 5.85028C6.50909 6.07045 6.35527 6.19273 6.11461 6.21484C5.34352 6.28542 4.57243 6.35989 3.80167 6.43339C3.42084 6.46949 3.04033 6.50689 2.65983 6.54364C2.6491 6.55957 2.63837 6.57583 2.62764 6.59177C2.6569 6.60445 2.6917 6.61063 2.71479 6.6308C3.55092 7.36123 4.38413 8.0946 5.22221 8.82276C5.41832 8.99317 5.49019 9.18797 5.43068 9.44327C5.26872 10.1386 5.11457 10.8362 4.95781 11.5328C4.86415 11.9484 4.77146 12.3644 4.67162 12.8096C4.74935 12.7663 4.80041 12.739 4.85049 12.7097C5.77541 12.1686 6.70357 11.6329 7.62263 11.0824C7.88736 10.9237 8.11794 10.9266 8.37909 11.084C9.04611 11.4863 9.7219 11.8743 10.3945 12.2678C10.6959 12.444 10.9977 12.6197 11.3216 12.8083C11.3103 12.7426 11.3057 12.7058 11.2976 12.6697C11.0579 11.6034 10.8215 10.5363 10.5753 9.47189C10.5119 9.19773 10.5779 8.99057 10.7922 8.80877C11.2179 8.4481 11.6342 8.07703 12.054 7.70954C12.4846 7.33164 12.9155 6.95374 13.3806 6.54657Z" fill="#1E1E1E"/>
</svg>
