<svg width="12" height="12" viewBox="0 0 12 12" fill="none" xmlns="http://www.w3.org/2000/svg">
<path d="M8.82746 10.6437C8.74712 10.6109 8.66117 10.5877 8.5874 10.544C7.83565 10.0986 7.0817 9.65625 6.33745 9.19864C6.09927 9.05204 5.9014 9.05016 5.66134 9.19833C4.92178 9.65438 4.16972 10.0895 3.42516 10.5371C3.25824 10.6374 3.09382 10.6703 2.93003 10.5534C2.7678 10.4377 2.73654 10.2764 2.7803 10.0826C2.97723 9.2102 3.16165 8.3353 3.3617 7.46351C3.41703 7.22189 3.3617 7.04622 3.17478 6.88243C2.50148 6.29228 1.83788 5.69119 1.16865 5.09666C1.02642 4.97038 0.960783 4.82597 1.02424 4.63936C1.08519 4.46025 1.2171 4.3843 1.40183 4.36679C2.31362 4.28052 3.22479 4.18737 4.13658 4.10048C4.33538 4.08141 4.45729 3.98013 4.53418 3.79978C4.89052 2.963 5.2528 2.12873 5.60821 1.29164C5.68541 1.10972 5.80607 0.999068 6.00674 1.00001C6.20336 1.00094 6.31776 1.11941 6.39122 1.29102C6.73443 2.09403 7.08921 2.89236 7.41804 3.701C7.53244 3.98232 7.70905 4.09798 8.00162 4.12236C8.87278 4.19519 9.74237 4.2874 10.6126 4.36867C10.7939 4.38555 10.9164 4.47182 10.9749 4.64061C11.034 4.81066 10.9871 4.95663 10.853 5.07635C10.1806 5.67556 9.51263 6.27978 8.83464 6.87274C8.64428 7.03903 8.57896 7.21407 8.63647 7.46414C8.84152 8.35592 9.03438 9.25021 9.22756 10.1448C9.28351 10.4049 9.09534 10.6284 8.82746 10.6437Z" fill="#1E1E1E"/>
</svg>
