<svg width="12" height="12" viewBox="0 0 12 12" fill="none" xmlns="http://www.w3.org/2000/svg">
<path d="M6.06937 1.00023C6.23663 1.05552 6.32351 1.17957 6.39157 1.33683C6.76627 2.20562 7.14909 3.0707 7.52518 3.93879C7.55863 4.01592 7.59859 4.05285 7.68291 4.06029C8.37632 4.12254 9.06926 4.18805 9.76244 4.25333C10.0588 4.2812 10.3553 4.3107 10.6517 4.33858C10.8203 4.35437 10.9348 4.44265 10.9825 4.6027C11.0301 4.76275 10.9787 4.89702 10.8524 5.00713C10.1093 5.6557 9.368 6.30637 8.62349 6.95355C8.56471 7.00466 8.55426 7.04717 8.57145 7.12197C8.784 8.05232 8.99191 8.9836 9.20121 9.91465C9.27299 10.2336 9.20353 10.3651 8.90363 10.4777C8.87274 10.4777 8.84161 10.4777 8.81072 10.4777C8.71176 10.4269 8.61001 10.3806 8.51384 10.3246C7.70289 9.85169 6.89287 9.37757 6.08354 8.90183C6.02361 8.86652 5.97878 8.86443 5.91606 8.9016C5.35436 9.23425 4.79104 9.56481 4.22586 9.89188C3.88206 10.0907 3.53431 10.2828 3.18842 10.4777C3.14963 10.4777 3.11107 10.4777 3.07227 10.4777C2.77795 10.336 2.72778 10.2227 2.80188 9.89606C3.01281 8.96501 3.22234 8.03373 3.42792 7.10152C3.43698 7.06064 3.41538 6.99374 3.38402 6.96609C2.64694 6.31613 1.908 5.66848 1.16604 5.02409C1.0327 4.90817 0.966963 4.77506 1.01644 4.60433C1.06592 4.43312 1.19159 4.35182 1.36884 4.33556C2.07386 4.27098 2.77865 4.20245 3.48367 4.13555C3.76498 4.10884 4.04606 4.08073 4.32761 4.05796C4.40311 4.05192 4.43958 4.01963 4.46977 3.95018C4.84981 3.07511 5.23589 2.2026 5.61407 1.32661C5.68051 1.17236 5.76762 1.05343 5.93046 1C5.97646 1.00023 6.02291 1.00023 6.06937 1.00023ZM9.84328 4.96183C9.61841 4.94023 9.427 4.92188 9.23536 4.90376C8.60769 4.84406 7.98002 4.78273 7.35212 4.72652C7.16791 4.71002 7.05873 4.61315 6.98788 4.44938C6.72747 3.8468 6.46335 3.24562 6.19992 2.64397C6.1372 2.50087 6.07286 2.35871 6.00038 2.19633C5.98203 2.23536 5.9739 2.25139 5.9667 2.26788C5.6452 2.99985 5.32277 3.73135 5.00359 4.46448C4.93507 4.62175 4.82519 4.70909 4.65329 4.72489C4.10251 4.7753 3.55174 4.82849 3.00119 4.88099C2.72917 4.90678 2.45738 4.93349 2.18559 4.95974C2.17793 4.97112 2.17026 4.98274 2.1626 4.99412C2.1835 5.00318 2.20836 5.0076 2.22485 5.022C2.82209 5.54374 3.41724 6.06757 4.01587 6.58768C4.15594 6.70941 4.20728 6.84855 4.16477 7.0309C4.04908 7.52756 3.93898 8.02583 3.82701 8.52342C3.76011 8.82029 3.6939 9.1174 3.62259 9.43542C3.67811 9.40452 3.71458 9.38501 3.75035 9.3641C4.411 8.97756 5.07398 8.59496 5.73045 8.20168C5.91954 8.08832 6.08424 8.09041 6.27078 8.20285C6.74722 8.4902 7.22993 8.76733 7.71032 9.04841C7.92566 9.17431 8.14123 9.29975 8.3726 9.43449C8.36447 9.38756 8.36122 9.36131 8.35541 9.33553C8.18421 8.57382 8.01533 7.81166 7.83948 7.05135C7.79418 6.85552 7.84134 6.70755 7.99442 6.57769C8.2985 6.32007 8.59584 6.05502 8.89574 5.79253C9.2033 5.5226 9.51109 5.25267 9.84328 4.96183Z" fill="#1E1E1E"/>
</svg>
