<svg width="12" height="12" viewBox="0 0 12 12" fill="none" xmlns="http://www.w3.org/2000/svg">
<path d="M5.95 11.4C2.95 11.4 0.5 8.95 0.5 5.95C0.5 2.95 2.95 0.5 5.95 0.5C8.95 0.5 11.4 2.95 11.4 5.95C11.4 8.95 8.95 11.4 5.95 11.4ZM5.95 1.4C3.45 1.4 1.4 3.45 1.4 5.95C1.4 8.45 3.45 10.5 5.95 10.5C8.45 10.5 10.5 8.45 10.5 5.95C10.5 3.45 8.45 1.4 5.95 1.4Z" fill="#1E1E1E"/>
<path d="M5.45274 6.66567C5.98326 6.13173 6.467 5.64536 6.95016 5.1584C7.19708 4.90989 7.44256 4.65991 7.69035 4.412C7.89886 4.20339 8.18477 4.196 8.37075 4.39131C8.55501 4.58515 8.5423 4.86084 8.33235 5.07271C7.50032 5.91277 6.66714 6.75195 5.83309 7.59025C5.61967 7.80477 5.35455 7.80211 5.14257 7.58907C4.6519 7.0959 4.16124 6.60244 3.67028 6.10927C3.46206 5.90007 3.44271 5.62083 3.62378 5.42729C3.81092 5.22724 4.1003 5.22222 4.30419 5.43527C4.688 5.83595 5.06229 6.24608 5.45274 6.66567Z" fill="#1E1E1E"/>
</svg>
