<svg width="24" height="24" viewBox="0 0 24 24" fill="none" xmlns="http://www.w3.org/2000/svg">
<path fill-rule="evenodd" clip-rule="evenodd" d="M12 23C18.0751 23 23 18.0751 23 12C23 5.92487 18.0751 1 12 1C5.92487 1 1 5.92487 1 12C1 18.0751 5.92487 23 12 23ZM16.6364 10.1364C16.9879 9.78492 16.9879 9.21508 16.6364 8.8636C16.2849 8.51213 15.7151 8.51213 15.3636 8.8636L11 13.2272L8.6364 10.8636C8.28492 10.5121 7.71508 10.5121 7.3636 10.8636C7.01213 11.2151 7.01213 11.7849 7.3636 12.1364L10.3636 15.1364C10.7151 15.4879 11.2849 15.4879 11.6364 15.1364L16.6364 10.1364Z" fill="#1E1E1E"/>
</svg>
