<svg width="24" height="24" viewBox="0 0 24 24" fill="none" xmlns="http://www.w3.org/2000/svg">
<path d="M11.9 22.8C5.9 22.8 1 17.9 1 11.9C1 5.9 5.9 1 11.9 1C17.9 1 22.8 5.9 22.8 11.9C22.8 17.9 17.9 22.8 11.9 22.8ZM11.9 2.8C6.9 2.8 2.8 6.9 2.8 11.9C2.8 16.9 6.9 21 11.9 21C16.9 21 21 16.9 21 11.9C21 6.9 16.9 2.8 11.9 2.8Z" fill="#1E1E1E"/>
<path d="M10.9055 13.3313C11.9665 12.2635 12.934 11.2907 13.9003 10.3168C14.3942 9.81979 14.8851 9.31982 15.3807 8.824C15.7977 8.40677 16.3695 8.392 16.7415 8.78263C17.11 9.17031 17.0846 9.72169 16.6647 10.1454C15.0006 11.8255 13.3343 13.5039 11.6662 15.1805C11.2393 15.6095 10.7091 15.6042 10.2851 15.1781C9.30381 14.1918 8.32247 13.2049 7.34056 12.2185C6.92411 11.8001 6.88541 11.2417 7.24757 10.8546C7.62185 10.4545 8.2006 10.4444 8.60838 10.8705C9.37601 11.6719 10.1246 12.4922 10.9055 13.3313Z" fill="#1E1E1E"/>
</svg>
