<svg width="12" height="12" viewBox="0 0 12 12" fill="none" xmlns="http://www.w3.org/2000/svg">
<path fill-rule="evenodd" clip-rule="evenodd" d="M6 11.5C9.03755 11.5 11.5 9.03755 11.5 6C11.5 2.96244 9.03755 0.5 6 0.5C2.96244 0.5 0.5 2.96244 0.5 6C0.5 9.03755 2.96244 11.5 6 11.5ZM8.3182 5.0682C8.49395 4.89246 8.49395 4.60754 8.3182 4.4318C8.14245 4.25606 7.85755 4.25606 7.6818 4.4318L5.5 6.6136L4.3182 5.4318C4.14246 5.25605 3.85754 5.25605 3.6818 5.4318C3.50606 5.60755 3.50606 5.89245 3.6818 6.0682L5.1818 7.5682C5.35755 7.74395 5.64245 7.74395 5.8182 7.5682L8.3182 5.0682Z" fill="#1E1E1E"/>
</svg>
