<svg width="16" height="16" viewBox="0 0 16 16" fill="none" xmlns="http://www.w3.org/2000/svg">
<path fill-rule="evenodd" clip-rule="evenodd" d="M8 15.3333C12.0501 15.3333 15.3333 12.0501 15.3333 7.99999C15.3333 3.9499 12.0501 0.666656 8 0.666656C3.94992 0.666656 0.666672 3.9499 0.666672 7.99999C0.666672 12.0501 3.94992 15.3333 8 15.3333ZM11.0909 6.75759C11.3253 6.52327 11.3253 6.14338 11.0909 5.90906C10.8566 5.67474 10.4767 5.67474 10.2424 5.90906L7.33334 8.81812L5.75761 7.24239C5.52328 7.00806 5.14339 7.00806 4.90907 7.24239C4.67476 7.47672 4.67476 7.85659 4.90907 8.09092L6.90907 10.0909C7.1434 10.3253 7.52327 10.3253 7.7576 10.0909L11.0909 6.75759Z" fill="#1E1E1E"/>
</svg>
