<svg width="16" height="16" viewBox="0 0 16 16" fill="none" xmlns="http://www.w3.org/2000/svg">
<path d="M7.93334 15.2C3.93334 15.2 0.666672 11.9333 0.666672 7.93332C0.666672 3.93332 3.93334 0.666656 7.93334 0.666656C11.9333 0.666656 15.2 3.93332 15.2 7.93332C15.2 11.9333 11.9333 15.2 7.93334 15.2ZM7.93334 1.86666C4.6 1.86666 1.86667 4.59999 1.86667 7.93332C1.86667 11.2667 4.6 14 7.93334 14C11.2667 14 14 11.2667 14 7.93332C14 4.59999 11.2667 1.86666 7.93334 1.86666Z" fill="#1E1E1E"/>
<path d="M7.27033 8.88755C7.97769 8.17563 8.62267 7.52713 9.26688 6.87785C9.59611 6.54651 9.92342 6.21321 10.2538 5.88265C10.5318 5.6045 10.913 5.59465 11.161 5.85508C11.4067 6.11353 11.3897 6.48111 11.1098 6.7636C10.0004 7.88369 8.88952 9.0026 7.77745 10.1203C7.49289 10.4064 7.1394 10.4028 6.85677 10.1187C6.20254 9.46119 5.54832 8.80324 4.89371 8.14569C4.61608 7.86675 4.59028 7.49443 4.83172 7.23638C5.08124 6.96965 5.46707 6.96295 5.73893 7.24701C6.25068 7.78125 6.74972 8.3281 7.27033 8.88755Z" fill="#1E1E1E"/>
</svg>
