<svg width="12" height="12" viewBox="0 0 12 12" fill="none" xmlns="http://www.w3.org/2000/svg">
<path d="M2.36279 1.49999C2.26759 1.50316 2.17716 1.54244 2.10986 1.60985L1.60986 2.10985C1.54945 2.1702 1.51144 2.24935 1.50212 2.33423C1.4928 2.41911 1.51272 2.50463 1.55859 2.57665L2.52197 4.08885C2.79287 4.52221 3.37963 4.60292 3.77783 4.30809L5.73144 6.26171C5.39735 6.83719 5.44856 7.58022 5.93701 8.07421H5.93652L7.91503 10.0796C7.91536 10.0797 7.91569 10.0799 7.91601 10.0801C8.50104 10.6694 9.46395 10.6728 10.0532 10.0879C10.6421 9.5033 10.6464 8.54025 10.062 7.95116L10.061 7.95018L8.08642 5.94872C8.08626 5.94872 8.0861 5.94872 8.08593 5.94872C7.5934 5.45086 6.8429 5.39507 6.2622 5.73192L4.3081 3.77782C4.60249 3.37987 4.52231 2.79365 4.08984 2.52245L2.57666 1.55858C2.5129 1.51794 2.43835 1.49751 2.36279 1.49999ZM7.85351 1.49999C6.44901 1.49999 5.30186 2.60955 5.23486 3.99755L6.03466 4.79686C6.05466 4.73161 6.05778 4.6615 6.04003 4.59325C5.99903 4.434 5.97851 4.27649 5.97851 4.12499C5.97851 3.09099 6.81951 2.24999 7.85351 2.24999C7.94926 2.24999 8.04419 2.25746 8.13769 2.27196L7.32959 3.07958C7.11684 3.29208 7 3.57449 7 3.87499C7 4.17549 7.11709 4.4579 7.32959 4.6704C7.54209 4.8829 7.8245 4.99999 8.125 4.99999C8.4255 4.99999 8.70791 4.8829 8.92041 4.6704L9.7124 3.87889C9.7234 3.96014 9.72851 4.04224 9.72851 4.12499C9.72851 4.86974 9.29164 5.51782 8.66064 5.81932L9.20703 6.37255C9.96828 5.91255 10.4785 5.077 10.4785 4.1245C10.4785 3.73875 10.3945 3.36471 10.2285 3.01171C10.1765 2.90121 10.0741 2.82226 9.95361 2.80126C9.83386 2.78026 9.71027 2.8195 9.62402 2.90575L8.39013 4.13964C8.24863 4.28114 8.00136 4.28139 7.85986 4.13964C7.78911 4.06914 7.75 3.97499 7.75 3.87499C7.75 3.77499 7.78911 3.68085 7.85986 3.60985L9.10107 2.36815C9.18682 2.2824 9.22605 2.16075 9.20605 2.041C9.18605 1.9215 9.10923 1.81886 9.00048 1.76561C8.63798 1.58936 8.25226 1.49999 7.85351 1.49999ZM2.42724 2.35301L3.68847 3.15624C3.68945 3.15673 3.69042 3.15722 3.6914 3.1577C3.76637 3.20454 3.776 3.28941 3.71337 3.35204L3.35205 3.71337C3.28921 3.77627 3.20499 3.76703 3.15771 3.69139C3.15723 3.69041 3.15674 3.68944 3.15625 3.68846L2.35302 2.42723L2.42724 2.35301ZM4.30322 5.54051L1.93896 7.92333C1.65446 8.20983 1.4985 8.59038 1.5 8.99413C1.5015 9.39788 1.66028 9.77677 1.94628 10.061C2.23153 10.3443 2.60923 10.5 3.01123 10.5H3.0166C3.42035 10.4985 3.79948 10.34 4.08398 10.0532L5.63818 8.48632L5.55078 8.39842C5.39753 8.24342 5.27732 8.06689 5.18457 7.87889L3.55175 9.52489C3.4085 9.66914 3.21741 9.74924 3.01416 9.74999C2.80116 9.74649 2.61934 9.6723 2.47509 9.5288C2.33059 9.38555 2.25075 9.1947 2.25 8.9912C2.24925 8.78795 2.32794 8.59639 2.47119 8.45214L4.83349 6.07079L4.30322 5.54051ZM7.01464 6.24755C7.2089 6.24842 7.40306 6.32478 7.55273 6.47606L9.52783 8.47801C9.52815 8.47834 9.52848 8.47867 9.5288 8.47899C9.82794 8.77999 9.82619 9.25656 9.5249 9.55565C9.22317 9.85518 8.74771 9.85342 8.44824 9.55174L6.47021 7.54735C6.47021 7.54719 6.47021 7.54702 6.47021 7.54686C6.17177 7.24503 6.17406 6.77001 6.47509 6.47118C6.62611 6.32126 6.82038 6.24667 7.01464 6.24755Z" fill="#1E1E1E"/>
</svg>
