<svg width="16" height="16" viewBox="0 0 16 16" fill="none" xmlns="http://www.w3.org/2000/svg">
<path d="M3.1504 1.99999C3.02346 2.00422 2.90289 2.05659 2.81316 2.14648L2.14649 2.81314C2.06594 2.89361 2.01527 2.99915 2.00284 3.11232C1.99041 3.22549 2.01697 3.33951 2.07813 3.43554L3.36263 5.45182C3.72383 6.02962 4.50619 6.13724 5.03711 5.74413L7.64193 8.34895C7.19648 9.11627 7.26476 10.107 7.91602 10.7656H7.91537L10.5534 13.4394C10.5538 13.4397 10.5543 13.4399 10.5547 13.4401C11.3347 14.2259 12.6186 14.2305 13.4043 13.4505C14.1895 12.6711 14.1952 11.387 13.416 10.6016L13.4147 10.6003L10.7819 7.93163C10.7817 7.93163 10.7815 7.93163 10.7813 7.93163C10.1245 7.26782 9.12387 7.19344 8.34961 7.64257L5.74415 5.0371C6.13667 4.50651 6.02976 3.72488 5.45313 3.36327L3.43555 2.07812C3.35055 2.02393 3.25115 1.9967 3.1504 1.99999ZM10.4714 1.99999C8.59869 1.99999 7.06916 3.4794 6.97982 5.33007L8.04623 6.39583C8.0729 6.30883 8.07706 6.21534 8.05339 6.12434C7.99872 5.91201 7.97136 5.70199 7.97136 5.49999C7.97136 4.12133 9.09269 2.99999 10.4714 2.99999C10.599 2.99999 10.7256 3.00996 10.8503 3.02929L9.77279 4.10611C9.48912 4.38945 9.33334 4.76599 9.33334 5.16666C9.33334 5.56733 9.48946 5.94387 9.77279 6.22721C10.0561 6.51054 10.4327 6.66666 10.8333 6.66666C11.234 6.66666 11.6106 6.51054 11.8939 6.22721L12.9499 5.17187C12.9645 5.2802 12.9714 5.38966 12.9714 5.49999C12.9714 6.49299 12.3889 7.35711 11.5475 7.75911L12.276 8.49674C13.291 7.8834 13.9714 6.76934 13.9714 5.49934C13.9714 4.98501 13.8594 4.48628 13.638 4.01562C13.5687 3.86828 13.4322 3.76302 13.2715 3.73502C13.1118 3.70702 12.947 3.75934 12.832 3.87434L11.1869 5.51952C10.9982 5.70819 10.6685 5.70852 10.4798 5.51952C10.3855 5.42552 10.3333 5.29999 10.3333 5.16666C10.3333 5.03333 10.3855 4.90781 10.4798 4.81314L12.1348 3.15755C12.2491 3.04321 12.3014 2.88101 12.2747 2.72135C12.2481 2.56201 12.1457 2.42516 12.0007 2.35416C11.5173 2.11916 11.003 1.99999 10.4714 1.99999ZM3.23633 3.13736L4.91797 4.20833C4.91927 4.20898 4.92057 4.20963 4.92188 4.21028C5.02183 4.27273 5.03468 4.38589 4.95118 4.46939L4.46941 4.95116C4.38563 5.03504 4.27333 5.02272 4.21029 4.92187C4.20965 4.92056 4.20899 4.91926 4.20834 4.91796L3.13737 3.23632L3.23633 3.13736ZM5.73763 7.38736L2.58529 10.5644C2.20596 10.9464 1.998 11.4538 2 11.9922C2.002 12.5305 2.21372 13.0357 2.59506 13.4147C2.97539 13.7924 3.47898 14 4.01498 14H4.02214C4.56047 13.998 5.06598 13.7866 5.44532 13.4043L7.51758 11.3151L7.40105 11.1979C7.19671 10.9912 7.03643 10.7559 6.91277 10.5052L4.73568 12.6999C4.54468 12.8922 4.28988 12.999 4.01888 13C3.73488 12.9953 3.49247 12.8964 3.30013 12.7051C3.10747 12.5141 3.001 12.2596 3 11.9883C2.999 11.7173 3.10393 11.4619 3.29493 11.2695L6.44467 8.09439L5.73763 7.38736ZM9.35287 8.33007C9.61188 8.33124 9.87076 8.43305 10.0703 8.63476L12.7038 11.304C12.7042 11.3045 12.7046 11.3049 12.7051 11.3053C13.1039 11.7067 13.1016 12.3421 12.6999 12.7409C12.2976 13.1403 11.6636 13.1379 11.2643 12.7357L8.62696 10.0631C8.62696 10.0629 8.62696 10.0627 8.62696 10.0625C8.22903 9.66005 8.23209 9.02669 8.63347 8.62825C8.83483 8.42835 9.09386 8.3289 9.35287 8.33007Z" fill="#1E1E1E"/>
</svg>
