<svg width="24" height="24" viewBox="0 0 24 24" fill="none" xmlns="http://www.w3.org/2000/svg">
<path d="M4.72558 3C4.53518 3.00635 4.35432 3.08491 4.21973 3.21973L3.21973 4.21973C3.09891 4.34043 3.02289 4.49874 3.00425 4.66849C2.9856 4.83825 3.02545 5.00928 3.11719 5.15332L5.04394 8.17774C5.58574 9.04445 6.75927 9.20587 7.55566 8.61622L11.4629 12.5234C10.7947 13.6744 10.8971 15.1605 11.874 16.1484H11.873L15.8301 20.1592C15.8307 20.1595 15.8314 20.1598 15.832 20.1602C17.0021 21.3388 18.9279 21.3457 20.1064 20.1758C21.2842 19.0066 21.2928 17.0805 20.124 15.9023L20.1221 15.9004L16.1729 11.8975C16.1725 11.8975 16.1722 11.8975 16.1719 11.8975C15.1868 10.9017 13.6858 10.7902 12.5244 11.4639L8.61621 7.55567C9.205 6.75977 9.04463 5.58733 8.17969 5.04493L5.15332 3.11719C5.02581 3.03591 4.87672 2.99506 4.72558 3ZM15.707 3C12.898 3 10.6037 5.21912 10.4697 7.99512L12.0693 9.59375C12.1093 9.46325 12.1156 9.32303 12.0801 9.18653C11.9981 8.86803 11.957 8.553 11.957 8.25C11.957 6.182 13.639 4.5 15.707 4.5C15.8985 4.5 16.0884 4.51495 16.2754 4.54395L14.6592 6.15918C14.2337 6.58418 14 7.149 14 7.75C14 8.351 14.2342 8.91582 14.6592 9.34083C15.0842 9.76583 15.649 10 16.25 10C16.851 10 17.4158 9.76583 17.8408 9.34083L19.4248 7.75782C19.4468 7.92032 19.457 8.0845 19.457 8.25C19.457 9.7395 18.5833 11.0357 17.3213 11.6387L18.4141 12.7451C19.9366 11.8251 20.957 10.154 20.957 8.24903C20.957 7.47753 20.789 6.72944 20.457 6.02344C20.353 5.80244 20.1482 5.64454 19.9072 5.60254C19.6677 5.56054 19.4205 5.63903 19.248 5.81153L16.7803 8.2793C16.4973 8.5623 16.0027 8.5628 15.7197 8.2793C15.5782 8.1383 15.5 7.95 15.5 7.75C15.5 7.55 15.5782 7.36173 15.7197 7.21973L18.2021 4.73633C18.3736 4.56483 18.4521 4.32154 18.4121 4.08204C18.3721 3.84304 18.2185 3.63775 18.001 3.53125C17.276 3.17875 16.5045 3 15.707 3ZM4.85449 4.70606L7.37695 6.3125C7.3789 6.31349 7.38085 6.31447 7.38281 6.31543C7.53274 6.40911 7.55201 6.57885 7.42676 6.70411L6.7041 7.42676C6.57843 7.55257 6.40999 7.53409 6.31543 7.38282C6.31446 7.38086 6.31348 7.37891 6.3125 7.37696L4.70605 4.8545L4.85449 4.70606ZM8.60644 11.0811L3.87793 15.8467C3.30893 16.4197 2.997 17.1808 3 17.9883C3.003 18.7958 3.32058 19.5536 3.89258 20.1221C4.46308 20.6886 5.21846 21 6.02246 21H6.0332C6.8407 20.997 7.59897 20.6799 8.16797 20.1064L11.2764 16.9727L11.1016 16.7969C10.7951 16.4869 10.5546 16.1338 10.3691 15.7578L7.10351 19.0498C6.81701 19.3383 6.43482 19.4985 6.02832 19.5C5.60232 19.493 5.23869 19.3446 4.95019 19.0576C4.66119 18.7711 4.5015 18.3894 4.5 17.9824C4.4985 17.5759 4.65588 17.1928 4.94238 16.9043L9.66699 12.1416L8.60644 11.0811ZM14.0293 12.4951C14.4178 12.4969 14.8061 12.6496 15.1055 12.9522L19.0557 16.9561C19.0563 16.9567 19.057 16.9574 19.0576 16.958C19.6559 17.56 19.6524 18.5131 19.0498 19.1113C18.4463 19.7104 17.4954 19.7069 16.8965 19.1035L12.9404 15.0947C12.9404 15.0944 12.9404 15.0941 12.9404 15.0938C12.3435 14.4901 12.3481 13.5401 12.9502 12.9424C13.2522 12.6425 13.6408 12.4934 14.0293 12.4951Z" fill="#1E1E1E"/>
</svg>
