<svg width="12" height="12" viewBox="0 0 12 12" fill="none" xmlns="http://www.w3.org/2000/svg">
<path fill-rule="evenodd" clip-rule="evenodd" d="M5.99983 8.14285C5.76326 8.14285 5.57126 8.33485 5.57126 8.57142C5.57126 8.80799 5.76326 8.99999 5.99983 8.99999C6.2364 8.99999 6.4284 8.80799 6.4284 8.57142C6.4284 8.33485 6.2364 8.14285 5.99983 8.14285ZM5.99983 3.85713C5.76326 3.85713 5.57126 4.04913 5.57126 4.28571V6.85585C5.57126 7.09242 5.76326 7.28442 5.99983 7.28442C6.2364 7.28442 6.4284 7.09242 6.4284 6.85585V4.28571C6.4284 4.04913 6.2364 3.85713 5.99983 3.85713ZM10.1488 9.35442C9.96668 9.66942 9.63968 9.85713 9.27411 9.85713H2.72597C2.3604 9.85713 2.0334 9.66942 1.85126 9.35442C1.6704 9.04242 1.66954 8.66913 1.84911 8.35628L5.12297 2.64942C5.30511 2.33228 5.63297 2.14285 5.99983 2.14285C6.36711 2.14285 6.69497 2.33228 6.87711 2.64942L10.151 8.35628C10.3301 8.66913 10.3297 9.04242 10.1488 9.35442ZM10.8941 7.92985L7.62026 2.22299C7.2834 1.63628 6.67783 1.28571 5.99983 1.28571C5.3214 1.28571 4.71626 1.63628 4.37983 2.22299L1.10554 7.92985C0.772112 8.51099 0.773827 9.20399 1.1094 9.78385C1.44626 10.3663 2.05097 10.7143 2.72597 10.7143H9.27411C9.94868 10.7143 10.553 10.3663 10.8907 9.78385C11.2263 9.20399 11.228 8.51099 10.8941 7.92985Z" fill="#1E1E1E"/>
</svg>
