<svg width="12" height="12" viewBox="0 0 12 12" fill="none" xmlns="http://www.w3.org/2000/svg">
<path d="M5.99936 9.21429C5.64407 9.21429 5.3565 8.92672 5.3565 8.57143C5.3565 8.21615 5.64407 7.92858 5.99936 7.92858C6.35464 7.92858 6.64221 8.21615 6.64221 8.57143C6.64221 8.92672 6.35464 9.21429 5.99936 9.21429ZM5.57121 4.28572C5.57121 4.04915 5.76321 3.85715 5.99979 3.85715C6.23679 3.85715 6.42836 4.04915 6.42836 4.28572V6.85715C6.42836 7.09372 6.23679 7.28572 5.99979 7.28572C5.76321 7.28572 5.57121 7.09372 5.57121 6.85715V4.28572ZM10.8941 7.92944L7.62021 2.22301C7.28379 1.63586 6.67779 1.28572 5.99979 1.28572C5.32179 1.28572 4.71621 1.63586 4.37979 2.22301L1.10595 7.92944C0.772089 8.51058 0.773803 9.20401 1.10937 9.78386C1.44666 10.3663 2.05137 10.7143 2.72595 10.7143H9.27407C9.94864 10.7143 10.5529 10.3663 10.8906 9.78386C11.2262 9.20401 11.2279 8.51058 10.8941 7.92944Z" fill="#1E1E1E"/>
</svg>
