<svg width="16" height="16" viewBox="0 0 16 16" fill="none" xmlns="http://www.w3.org/2000/svg">
<path fill-rule="evenodd" clip-rule="evenodd" d="M7.99976 10.8571C7.68433 10.8571 7.42833 11.1131 7.42833 11.4286C7.42833 11.744 7.68433 12 7.99976 12C8.31519 12 8.57119 11.744 8.57119 11.4286C8.57119 11.1131 8.31519 10.8571 7.99976 10.8571ZM7.99976 5.14285C7.68433 5.14285 7.42833 5.39885 7.42833 5.71428V9.14114C7.42833 9.45657 7.68433 9.71256 7.99976 9.71256C8.31519 9.71256 8.57119 9.45657 8.57119 9.14114V5.71428C8.57119 5.39885 8.31519 5.14285 7.99976 5.14285ZM13.5318 12.4726C13.2889 12.8926 12.8529 13.1429 12.3655 13.1429H3.63462C3.14719 13.1429 2.71119 12.8926 2.46833 12.4726C2.22719 12.0566 2.22605 11.5589 2.46548 11.1417L6.83062 3.53257C7.07348 3.10971 7.51062 2.85714 7.99976 2.85714C8.48948 2.85714 8.92662 3.10971 9.16948 3.53257L13.5346 11.1417C13.7735 11.5589 13.7729 12.0566 13.5318 12.4726ZM14.5255 10.5731L10.1603 2.96399C9.71119 2.18171 8.90376 1.71428 7.99976 1.71428C7.09519 1.71428 6.28833 2.18171 5.83976 2.96399L1.47405 10.5731C1.02948 11.348 1.03176 12.272 1.47919 13.0451C1.92833 13.8217 2.73462 14.2857 3.63462 14.2857H12.3655C13.2649 14.2857 14.0706 13.8217 14.5209 13.0451C14.9683 12.272 14.9706 11.348 14.5255 10.5731Z" fill="#1E1E1E"/>
</svg>
